<mxfile host="app.diagrams.net" modified="2023-03-28T15:54:44.228Z" agent="Mozilla/5.0 (Windows NT 10.0; Win64; x64) AppleWebKit/537.36 (KHTML, like Gecko) Chrome/111.0.0.0 Safari/537.36" etag="8DgIBeGeua7N_yLnJjLM" version="21.1.1" type="github">
  <diagram name="Страница 1" id="uBOSSpwB63D3d6_g8Ejs">
    <mxGraphModel dx="2849" dy="1804" grid="1" gridSize="10" guides="1" tooltips="1" connect="1" arrows="1" fold="1" page="1" pageScale="1" pageWidth="827" pageHeight="1169" math="0" shadow="0">
      <root>
        <mxCell id="0" />
        <mxCell id="1" parent="0" />
        <mxCell id="bHJu5GRSBFpT4Akue6Z2-1" value="users" style="swimlane;fontStyle=0;childLayout=stackLayout;horizontal=1;startSize=26;fillColor=none;horizontalStack=0;resizeParent=1;resizeParentMax=0;resizeLast=0;collapsible=1;marginBottom=0;" vertex="1" parent="1">
          <mxGeometry x="-120" y="-1096" width="200" height="416" as="geometry" />
        </mxCell>
        <mxCell id="bHJu5GRSBFpT4Akue6Z2-2" value="id: bigint" style="text;strokeColor=none;fillColor=none;align=left;verticalAlign=top;spacingLeft=4;spacingRight=4;overflow=hidden;rotatable=0;points=[[0,0.5],[1,0.5]];portConstraint=eastwest;" vertex="1" parent="bHJu5GRSBFpT4Akue6Z2-1">
          <mxGeometry y="26" width="200" height="26" as="geometry" />
        </mxCell>
        <mxCell id="bHJu5GRSBFpT4Akue6Z2-3" value="created_at: date" style="text;strokeColor=none;fillColor=none;align=left;verticalAlign=top;spacingLeft=4;spacingRight=4;overflow=hidden;rotatable=0;points=[[0,0.5],[1,0.5]];portConstraint=eastwest;" vertex="1" parent="bHJu5GRSBFpT4Akue6Z2-1">
          <mxGeometry y="52" width="200" height="26" as="geometry" />
        </mxCell>
        <mxCell id="bHJu5GRSBFpT4Akue6Z2-4" value="update_at: date" style="text;strokeColor=none;fillColor=none;align=left;verticalAlign=top;spacingLeft=4;spacingRight=4;overflow=hidden;rotatable=0;points=[[0,0.5],[1,0.5]];portConstraint=eastwest;" vertex="1" parent="bHJu5GRSBFpT4Akue6Z2-1">
          <mxGeometry y="78" width="200" height="26" as="geometry" />
        </mxCell>
        <mxCell id="bHJu5GRSBFpT4Akue6Z2-5" value="name: varchar(100)" style="text;strokeColor=none;fillColor=none;align=left;verticalAlign=top;spacingLeft=4;spacingRight=4;overflow=hidden;rotatable=0;points=[[0,0.5],[1,0.5]];portConstraint=eastwest;" vertex="1" parent="bHJu5GRSBFpT4Akue6Z2-1">
          <mxGeometry y="104" width="200" height="26" as="geometry" />
        </mxCell>
        <mxCell id="bHJu5GRSBFpT4Akue6Z2-14" value="phone: varchar(20)" style="text;strokeColor=none;fillColor=none;align=left;verticalAlign=top;spacingLeft=4;spacingRight=4;overflow=hidden;rotatable=0;points=[[0,0.5],[1,0.5]];portConstraint=eastwest;" vertex="1" parent="bHJu5GRSBFpT4Akue6Z2-1">
          <mxGeometry y="130" width="200" height="26" as="geometry" />
        </mxCell>
        <mxCell id="bHJu5GRSBFpT4Akue6Z2-15" value="birthday: date" style="text;strokeColor=none;fillColor=none;align=left;verticalAlign=top;spacingLeft=4;spacingRight=4;overflow=hidden;rotatable=0;points=[[0,0.5],[1,0.5]];portConstraint=eastwest;" vertex="1" parent="bHJu5GRSBFpT4Akue6Z2-1">
          <mxGeometry y="156" width="200" height="26" as="geometry" />
        </mxCell>
        <mxCell id="bHJu5GRSBFpT4Akue6Z2-7" value="facebook_id: varchar(100)" style="text;strokeColor=none;fillColor=none;align=left;verticalAlign=top;spacingLeft=4;spacingRight=4;overflow=hidden;rotatable=0;points=[[0,0.5],[1,0.5]];portConstraint=eastwest;" vertex="1" parent="bHJu5GRSBFpT4Akue6Z2-1">
          <mxGeometry y="182" width="200" height="26" as="geometry" />
        </mxCell>
        <mxCell id="bHJu5GRSBFpT4Akue6Z2-8" value="email: varchar(100)" style="text;strokeColor=none;fillColor=none;align=left;verticalAlign=top;spacingLeft=4;spacingRight=4;overflow=hidden;rotatable=0;points=[[0,0.5],[1,0.5]];portConstraint=eastwest;" vertex="1" parent="bHJu5GRSBFpT4Akue6Z2-1">
          <mxGeometry y="208" width="200" height="26" as="geometry" />
        </mxCell>
        <mxCell id="bHJu5GRSBFpT4Akue6Z2-10" value="password: varchar(100)" style="text;strokeColor=none;fillColor=none;align=left;verticalAlign=top;spacingLeft=4;spacingRight=4;overflow=hidden;rotatable=0;points=[[0,0.5],[1,0.5]];portConstraint=eastwest;" vertex="1" parent="bHJu5GRSBFpT4Akue6Z2-1">
          <mxGeometry y="234" width="200" height="26" as="geometry" />
        </mxCell>
        <mxCell id="bHJu5GRSBFpT4Akue6Z2-9" value="address: varchar(300)" style="text;strokeColor=none;fillColor=none;align=left;verticalAlign=top;spacingLeft=4;spacingRight=4;overflow=hidden;rotatable=0;points=[[0,0.5],[1,0.5]];portConstraint=eastwest;" vertex="1" parent="bHJu5GRSBFpT4Akue6Z2-1">
          <mxGeometry y="260" width="200" height="26" as="geometry" />
        </mxCell>
        <mxCell id="bHJu5GRSBFpT4Akue6Z2-11" value="card_number: varchar(20)" style="text;strokeColor=none;fillColor=none;align=left;verticalAlign=top;spacingLeft=4;spacingRight=4;overflow=hidden;rotatable=0;points=[[0,0.5],[1,0.5]];portConstraint=eastwest;" vertex="1" parent="bHJu5GRSBFpT4Akue6Z2-1">
          <mxGeometry y="286" width="200" height="26" as="geometry" />
        </mxCell>
        <mxCell id="bHJu5GRSBFpT4Akue6Z2-208" value="bonus_points: int" style="text;strokeColor=none;fillColor=none;align=left;verticalAlign=top;spacingLeft=4;spacingRight=4;overflow=hidden;rotatable=0;points=[[0,0.5],[1,0.5]];portConstraint=eastwest;" vertex="1" parent="bHJu5GRSBFpT4Akue6Z2-1">
          <mxGeometry y="312" width="200" height="26" as="geometry" />
        </mxCell>
        <mxCell id="bHJu5GRSBFpT4Akue6Z2-207" value="order_id: bigint" style="text;strokeColor=none;fillColor=none;align=left;verticalAlign=top;spacingLeft=4;spacingRight=4;overflow=hidden;rotatable=0;points=[[0,0.5],[1,0.5]];portConstraint=eastwest;" vertex="1" parent="bHJu5GRSBFpT4Akue6Z2-1">
          <mxGeometry y="338" width="200" height="26" as="geometry" />
        </mxCell>
        <mxCell id="bHJu5GRSBFpT4Akue6Z2-206" value="address_id: bigint" style="text;strokeColor=none;fillColor=none;align=left;verticalAlign=top;spacingLeft=4;spacingRight=4;overflow=hidden;rotatable=0;points=[[0,0.5],[1,0.5]];portConstraint=eastwest;" vertex="1" parent="bHJu5GRSBFpT4Akue6Z2-1">
          <mxGeometry y="364" width="200" height="26" as="geometry" />
        </mxCell>
        <mxCell id="bHJu5GRSBFpT4Akue6Z2-205" value="shopping_cart_id: bigint" style="text;strokeColor=none;fillColor=none;align=left;verticalAlign=top;spacingLeft=4;spacingRight=4;overflow=hidden;rotatable=0;points=[[0,0.5],[1,0.5]];portConstraint=eastwest;" vertex="1" parent="bHJu5GRSBFpT4Akue6Z2-1">
          <mxGeometry y="390" width="200" height="26" as="geometry" />
        </mxCell>
        <mxCell id="bHJu5GRSBFpT4Akue6Z2-17" value="top_banners" style="swimlane;fontStyle=0;childLayout=stackLayout;horizontal=1;startSize=26;fillColor=none;horizontalStack=0;resizeParent=1;resizeParentMax=0;resizeLast=0;collapsible=1;marginBottom=0;" vertex="1" parent="1">
          <mxGeometry x="-690" y="-1160" width="160" height="157" as="geometry" />
        </mxCell>
        <mxCell id="bHJu5GRSBFpT4Akue6Z2-18" value="id: bigint" style="text;strokeColor=none;fillColor=none;align=left;verticalAlign=top;spacingLeft=4;spacingRight=4;overflow=hidden;rotatable=0;points=[[0,0.5],[1,0.5]];portConstraint=eastwest;" vertex="1" parent="bHJu5GRSBFpT4Akue6Z2-17">
          <mxGeometry y="26" width="160" height="26" as="geometry" />
        </mxCell>
        <mxCell id="bHJu5GRSBFpT4Akue6Z2-19" value="created_at: date" style="text;strokeColor=none;fillColor=none;align=left;verticalAlign=top;spacingLeft=4;spacingRight=4;overflow=hidden;rotatable=0;points=[[0,0.5],[1,0.5]];portConstraint=eastwest;" vertex="1" parent="bHJu5GRSBFpT4Akue6Z2-17">
          <mxGeometry y="52" width="160" height="26" as="geometry" />
        </mxCell>
        <mxCell id="bHJu5GRSBFpT4Akue6Z2-20" value="update_at: date" style="text;strokeColor=none;fillColor=none;align=left;verticalAlign=top;spacingLeft=4;spacingRight=4;overflow=hidden;rotatable=0;points=[[0,0.5],[1,0.5]];portConstraint=eastwest;" vertex="1" parent="bHJu5GRSBFpT4Akue6Z2-17">
          <mxGeometry y="78" width="160" height="27" as="geometry" />
        </mxCell>
        <mxCell id="bHJu5GRSBFpT4Akue6Z2-21" value="is_disabled: boolean" style="text;strokeColor=none;fillColor=none;align=left;verticalAlign=top;spacingLeft=4;spacingRight=4;overflow=hidden;rotatable=0;points=[[0,0.5],[1,0.5]];portConstraint=eastwest;" vertex="1" parent="bHJu5GRSBFpT4Akue6Z2-17">
          <mxGeometry y="105" width="160" height="26" as="geometry" />
        </mxCell>
        <mxCell id="bHJu5GRSBFpT4Akue6Z2-22" value="rotating_speed: int" style="text;strokeColor=none;fillColor=none;align=left;verticalAlign=top;spacingLeft=4;spacingRight=4;overflow=hidden;rotatable=0;points=[[0,0.5],[1,0.5]];portConstraint=eastwest;" vertex="1" parent="bHJu5GRSBFpT4Akue6Z2-17">
          <mxGeometry y="131" width="160" height="26" as="geometry" />
        </mxCell>
        <mxCell id="bHJu5GRSBFpT4Akue6Z2-23" value="address" style="swimlane;fontStyle=0;childLayout=stackLayout;horizontal=1;startSize=26;fillColor=none;horizontalStack=0;resizeParent=1;resizeParentMax=0;resizeLast=0;collapsible=1;marginBottom=0;" vertex="1" parent="1">
          <mxGeometry x="-440" y="-993" width="200" height="287" as="geometry" />
        </mxCell>
        <mxCell id="bHJu5GRSBFpT4Akue6Z2-24" value="id: bigint" style="text;strokeColor=none;fillColor=none;align=left;verticalAlign=top;spacingLeft=4;spacingRight=4;overflow=hidden;rotatable=0;points=[[0,0.5],[1,0.5]];portConstraint=eastwest;" vertex="1" parent="bHJu5GRSBFpT4Akue6Z2-23">
          <mxGeometry y="26" width="200" height="26" as="geometry" />
        </mxCell>
        <mxCell id="bHJu5GRSBFpT4Akue6Z2-25" value="created_at: date" style="text;strokeColor=none;fillColor=none;align=left;verticalAlign=top;spacingLeft=4;spacingRight=4;overflow=hidden;rotatable=0;points=[[0,0.5],[1,0.5]];portConstraint=eastwest;" vertex="1" parent="bHJu5GRSBFpT4Akue6Z2-23">
          <mxGeometry y="52" width="200" height="26" as="geometry" />
        </mxCell>
        <mxCell id="bHJu5GRSBFpT4Akue6Z2-26" value="update_at: date" style="text;strokeColor=none;fillColor=none;align=left;verticalAlign=top;spacingLeft=4;spacingRight=4;overflow=hidden;rotatable=0;points=[[0,0.5],[1,0.5]];portConstraint=eastwest;" vertex="1" parent="bHJu5GRSBFpT4Akue6Z2-23">
          <mxGeometry y="78" width="200" height="27" as="geometry" />
        </mxCell>
        <mxCell id="bHJu5GRSBFpT4Akue6Z2-27" value="street: varchar(100)" style="text;strokeColor=none;fillColor=none;align=left;verticalAlign=top;spacingLeft=4;spacingRight=4;overflow=hidden;rotatable=0;points=[[0,0.5],[1,0.5]];portConstraint=eastwest;" vertex="1" parent="bHJu5GRSBFpT4Akue6Z2-23">
          <mxGeometry y="105" width="200" height="26" as="geometry" />
        </mxCell>
        <mxCell id="bHJu5GRSBFpT4Akue6Z2-228" value="number_house: varchar(10)" style="text;strokeColor=none;fillColor=none;align=left;verticalAlign=top;spacingLeft=4;spacingRight=4;overflow=hidden;rotatable=0;points=[[0,0.5],[1,0.5]];portConstraint=eastwest;" vertex="1" parent="bHJu5GRSBFpT4Akue6Z2-23">
          <mxGeometry y="131" width="200" height="26" as="geometry" />
        </mxCell>
        <mxCell id="bHJu5GRSBFpT4Akue6Z2-229" value="apartment: varchar(10)" style="text;strokeColor=none;fillColor=none;align=left;verticalAlign=top;spacingLeft=4;spacingRight=4;overflow=hidden;rotatable=0;points=[[0,0.5],[1,0.5]];portConstraint=eastwest;" vertex="1" parent="bHJu5GRSBFpT4Akue6Z2-23">
          <mxGeometry y="157" width="200" height="26" as="geometry" />
        </mxCell>
        <mxCell id="bHJu5GRSBFpT4Akue6Z2-230" value="front_door: varchar(25)" style="text;strokeColor=none;fillColor=none;align=left;verticalAlign=top;spacingLeft=4;spacingRight=4;overflow=hidden;rotatable=0;points=[[0,0.5],[1,0.5]];portConstraint=eastwest;" vertex="1" parent="bHJu5GRSBFpT4Akue6Z2-23">
          <mxGeometry y="183" width="200" height="26" as="geometry" />
        </mxCell>
        <mxCell id="bHJu5GRSBFpT4Akue6Z2-231" value="door_code: varchar(50)" style="text;strokeColor=none;fillColor=none;align=left;verticalAlign=top;spacingLeft=4;spacingRight=4;overflow=hidden;rotatable=0;points=[[0,0.5],[1,0.5]];portConstraint=eastwest;" vertex="1" parent="bHJu5GRSBFpT4Akue6Z2-23">
          <mxGeometry y="209" width="200" height="26" as="geometry" />
        </mxCell>
        <mxCell id="bHJu5GRSBFpT4Akue6Z2-232" value="floor: int" style="text;strokeColor=none;fillColor=none;align=left;verticalAlign=top;spacingLeft=4;spacingRight=4;overflow=hidden;rotatable=0;points=[[0,0.5],[1,0.5]];portConstraint=eastwest;" vertex="1" parent="bHJu5GRSBFpT4Akue6Z2-23">
          <mxGeometry y="235" width="200" height="26" as="geometry" />
        </mxCell>
        <mxCell id="bHJu5GRSBFpT4Akue6Z2-233" value="notes: varchar(500)" style="text;strokeColor=none;fillColor=none;align=left;verticalAlign=top;spacingLeft=4;spacingRight=4;overflow=hidden;rotatable=0;points=[[0,0.5],[1,0.5]];portConstraint=eastwest;" vertex="1" parent="bHJu5GRSBFpT4Akue6Z2-23">
          <mxGeometry y="261" width="200" height="26" as="geometry" />
        </mxCell>
        <mxCell id="bHJu5GRSBFpT4Akue6Z2-30" value="orders" style="swimlane;fontStyle=0;childLayout=stackLayout;horizontal=1;startSize=26;fillColor=none;horizontalStack=0;resizeParent=1;resizeParentMax=0;resizeLast=0;collapsible=1;marginBottom=0;" vertex="1" parent="1">
          <mxGeometry x="200" y="-1096" width="200" height="338" as="geometry" />
        </mxCell>
        <mxCell id="bHJu5GRSBFpT4Akue6Z2-31" value="id: bigint" style="text;strokeColor=none;fillColor=none;align=left;verticalAlign=top;spacingLeft=4;spacingRight=4;overflow=hidden;rotatable=0;points=[[0,0.5],[1,0.5]];portConstraint=eastwest;" vertex="1" parent="bHJu5GRSBFpT4Akue6Z2-30">
          <mxGeometry y="26" width="200" height="26" as="geometry" />
        </mxCell>
        <mxCell id="bHJu5GRSBFpT4Akue6Z2-32" value="created_at: date" style="text;strokeColor=none;fillColor=none;align=left;verticalAlign=top;spacingLeft=4;spacingRight=4;overflow=hidden;rotatable=0;points=[[0,0.5],[1,0.5]];portConstraint=eastwest;" vertex="1" parent="bHJu5GRSBFpT4Akue6Z2-30">
          <mxGeometry y="52" width="200" height="26" as="geometry" />
        </mxCell>
        <mxCell id="bHJu5GRSBFpT4Akue6Z2-33" value="update_at: date" style="text;strokeColor=none;fillColor=none;align=left;verticalAlign=top;spacingLeft=4;spacingRight=4;overflow=hidden;rotatable=0;points=[[0,0.5],[1,0.5]];portConstraint=eastwest;" vertex="1" parent="bHJu5GRSBFpT4Akue6Z2-30">
          <mxGeometry y="78" width="200" height="26" as="geometry" />
        </mxCell>
        <mxCell id="bHJu5GRSBFpT4Akue6Z2-210" value="order_code: int" style="text;strokeColor=none;fillColor=none;align=left;verticalAlign=top;spacingLeft=4;spacingRight=4;overflow=hidden;rotatable=0;points=[[0,0.5],[1,0.5]];portConstraint=eastwest;" vertex="1" parent="bHJu5GRSBFpT4Akue6Z2-30">
          <mxGeometry y="104" width="200" height="26" as="geometry" />
        </mxCell>
        <mxCell id="bHJu5GRSBFpT4Akue6Z2-209" value="birthday: date" style="text;strokeColor=none;fillColor=none;align=left;verticalAlign=top;spacingLeft=4;spacingRight=4;overflow=hidden;rotatable=0;points=[[0,0.5],[1,0.5]];portConstraint=eastwest;" vertex="1" parent="bHJu5GRSBFpT4Akue6Z2-30">
          <mxGeometry y="130" width="200" height="26" as="geometry" />
        </mxCell>
        <mxCell id="bHJu5GRSBFpT4Akue6Z2-211" value="price: int" style="text;strokeColor=none;fillColor=none;align=left;verticalAlign=top;spacingLeft=4;spacingRight=4;overflow=hidden;rotatable=0;points=[[0,0.5],[1,0.5]];portConstraint=eastwest;" vertex="1" parent="bHJu5GRSBFpT4Akue6Z2-30">
          <mxGeometry y="156" width="200" height="26" as="geometry" />
        </mxCell>
        <mxCell id="bHJu5GRSBFpT4Akue6Z2-34" value="deliveryStatus: enum" style="text;strokeColor=none;fillColor=none;align=left;verticalAlign=top;spacingLeft=4;spacingRight=4;overflow=hidden;rotatable=0;points=[[0,0.5],[1,0.5]];portConstraint=eastwest;" vertex="1" parent="bHJu5GRSBFpT4Akue6Z2-30">
          <mxGeometry y="182" width="200" height="26" as="geometry" />
        </mxCell>
        <mxCell id="bHJu5GRSBFpT4Akue6Z2-213" value="deliveryTime: date" style="text;strokeColor=none;fillColor=none;align=left;verticalAlign=top;spacingLeft=4;spacingRight=4;overflow=hidden;rotatable=0;points=[[0,0.5],[1,0.5]];portConstraint=eastwest;" vertex="1" parent="bHJu5GRSBFpT4Akue6Z2-30">
          <mxGeometry y="208" width="200" height="26" as="geometry" />
        </mxCell>
        <mxCell id="bHJu5GRSBFpT4Akue6Z2-214" value="carStatus: boolean" style="text;strokeColor=none;fillColor=none;align=left;verticalAlign=top;spacingLeft=4;spacingRight=4;overflow=hidden;rotatable=0;points=[[0,0.5],[1,0.5]];portConstraint=eastwest;" vertex="1" parent="bHJu5GRSBFpT4Akue6Z2-30">
          <mxGeometry y="234" width="200" height="26" as="geometry" />
        </mxCell>
        <mxCell id="bHJu5GRSBFpT4Akue6Z2-215" value="timeStatus: boolean" style="text;strokeColor=none;fillColor=none;align=left;verticalAlign=top;spacingLeft=4;spacingRight=4;overflow=hidden;rotatable=0;points=[[0,0.5],[1,0.5]];portConstraint=eastwest;" vertex="1" parent="bHJu5GRSBFpT4Akue6Z2-30">
          <mxGeometry y="260" width="200" height="26" as="geometry" />
        </mxCell>
        <mxCell id="bHJu5GRSBFpT4Akue6Z2-216" value="cardPay: boolean" style="text;strokeColor=none;fillColor=none;align=left;verticalAlign=top;spacingLeft=4;spacingRight=4;overflow=hidden;rotatable=0;points=[[0,0.5],[1,0.5]];portConstraint=eastwest;" vertex="1" parent="bHJu5GRSBFpT4Akue6Z2-30">
          <mxGeometry y="286" width="200" height="26" as="geometry" />
        </mxCell>
        <mxCell id="bHJu5GRSBFpT4Akue6Z2-212" value="cashPay: boolean" style="text;strokeColor=none;fillColor=none;align=left;verticalAlign=top;spacingLeft=4;spacingRight=4;overflow=hidden;rotatable=0;points=[[0,0.5],[1,0.5]];portConstraint=eastwest;" vertex="1" parent="bHJu5GRSBFpT4Akue6Z2-30">
          <mxGeometry y="312" width="200" height="26" as="geometry" />
        </mxCell>
        <mxCell id="bHJu5GRSBFpT4Akue6Z2-46" value="movies" style="swimlane;fontStyle=0;childLayout=stackLayout;horizontal=1;startSize=26;fillColor=none;horizontalStack=0;resizeParent=1;resizeParentMax=0;resizeLast=0;collapsible=1;marginBottom=0;" vertex="1" parent="1">
          <mxGeometry x="400" y="-380" width="190" height="550" as="geometry" />
        </mxCell>
        <mxCell id="bHJu5GRSBFpT4Akue6Z2-47" value="id: bigint" style="text;strokeColor=none;fillColor=none;align=left;verticalAlign=top;spacingLeft=4;spacingRight=4;overflow=hidden;rotatable=0;points=[[0,0.5],[1,0.5]];portConstraint=eastwest;" vertex="1" parent="bHJu5GRSBFpT4Akue6Z2-46">
          <mxGeometry y="26" width="190" height="26" as="geometry" />
        </mxCell>
        <mxCell id="bHJu5GRSBFpT4Akue6Z2-48" value="created_at: date" style="text;strokeColor=none;fillColor=none;align=left;verticalAlign=top;spacingLeft=4;spacingRight=4;overflow=hidden;rotatable=0;points=[[0,0.5],[1,0.5]];portConstraint=eastwest;" vertex="1" parent="bHJu5GRSBFpT4Akue6Z2-46">
          <mxGeometry y="52" width="190" height="26" as="geometry" />
        </mxCell>
        <mxCell id="bHJu5GRSBFpT4Akue6Z2-49" value="update_at: date" style="text;strokeColor=none;fillColor=none;align=left;verticalAlign=top;spacingLeft=4;spacingRight=4;overflow=hidden;rotatable=0;points=[[0,0.5],[1,0.5]];portConstraint=eastwest;" vertex="1" parent="bHJu5GRSBFpT4Akue6Z2-46">
          <mxGeometry y="78" width="190" height="30" as="geometry" />
        </mxCell>
        <mxCell id="bHJu5GRSBFpT4Akue6Z2-50" value="name: varchar(100)" style="text;strokeColor=none;fillColor=none;align=left;verticalAlign=top;spacingLeft=4;spacingRight=4;overflow=hidden;rotatable=0;points=[[0,0.5],[1,0.5]];portConstraint=eastwest;" vertex="1" parent="bHJu5GRSBFpT4Akue6Z2-46">
          <mxGeometry y="108" width="190" height="26" as="geometry" />
        </mxCell>
        <mxCell id="bHJu5GRSBFpT4Akue6Z2-51" value="description: varchar(1000)" style="text;strokeColor=none;fillColor=none;align=left;verticalAlign=top;spacingLeft=4;spacingRight=4;overflow=hidden;rotatable=0;points=[[0,0.5],[1,0.5]];portConstraint=eastwest;" vertex="1" parent="bHJu5GRSBFpT4Akue6Z2-46">
          <mxGeometry y="134" width="190" height="26" as="geometry" />
        </mxCell>
        <mxCell id="bHJu5GRSBFpT4Akue6Z2-52" value="type_3d: boolean" style="text;strokeColor=none;fillColor=none;align=left;verticalAlign=top;spacingLeft=4;spacingRight=4;overflow=hidden;rotatable=0;points=[[0,0.5],[1,0.5]];portConstraint=eastwest;" vertex="1" parent="bHJu5GRSBFpT4Akue6Z2-46">
          <mxGeometry y="160" width="190" height="26" as="geometry" />
        </mxCell>
        <mxCell id="bHJu5GRSBFpT4Akue6Z2-53" value="type_2d: boolean" style="text;strokeColor=none;fillColor=none;align=left;verticalAlign=top;spacingLeft=4;spacingRight=4;overflow=hidden;rotatable=0;points=[[0,0.5],[1,0.5]];portConstraint=eastwest;" vertex="1" parent="bHJu5GRSBFpT4Akue6Z2-46">
          <mxGeometry y="186" width="190" height="26" as="geometry" />
        </mxCell>
        <mxCell id="bHJu5GRSBFpT4Akue6Z2-54" value="type_imax: boolean" style="text;strokeColor=none;fillColor=none;align=left;verticalAlign=top;spacingLeft=4;spacingRight=4;overflow=hidden;rotatable=0;points=[[0,0.5],[1,0.5]];portConstraint=eastwest;" vertex="1" parent="bHJu5GRSBFpT4Akue6Z2-46">
          <mxGeometry y="212" width="190" height="26" as="geometry" />
        </mxCell>
        <mxCell id="bHJu5GRSBFpT4Akue6Z2-55" value="type_dbox: boolean" style="text;strokeColor=none;fillColor=none;align=left;verticalAlign=top;spacingLeft=4;spacingRight=4;overflow=hidden;rotatable=0;points=[[0,0.5],[1,0.5]];portConstraint=eastwest;" vertex="1" parent="bHJu5GRSBFpT4Akue6Z2-46">
          <mxGeometry y="238" width="190" height="26" as="geometry" />
        </mxCell>
        <mxCell id="bHJu5GRSBFpT4Akue6Z2-56" value="type_plus18: boolean" style="text;strokeColor=none;fillColor=none;align=left;verticalAlign=top;spacingLeft=4;spacingRight=4;overflow=hidden;rotatable=0;points=[[0,0.5],[1,0.5]];portConstraint=eastwest;" vertex="1" parent="bHJu5GRSBFpT4Akue6Z2-46">
          <mxGeometry y="264" width="190" height="26" as="geometry" />
        </mxCell>
        <mxCell id="bHJu5GRSBFpT4Akue6Z2-57" value="type_plus16: boolean" style="text;strokeColor=none;fillColor=none;align=left;verticalAlign=top;spacingLeft=4;spacingRight=4;overflow=hidden;rotatable=0;points=[[0,0.5],[1,0.5]];portConstraint=eastwest;" vertex="1" parent="bHJu5GRSBFpT4Akue6Z2-46">
          <mxGeometry y="290" width="190" height="26" as="geometry" />
        </mxCell>
        <mxCell id="bHJu5GRSBFpT4Akue6Z2-58" value="type_plus12: boolean" style="text;strokeColor=none;fillColor=none;align=left;verticalAlign=top;spacingLeft=4;spacingRight=4;overflow=hidden;rotatable=0;points=[[0,0.5],[1,0.5]];portConstraint=eastwest;" vertex="1" parent="bHJu5GRSBFpT4Akue6Z2-46">
          <mxGeometry y="316" width="190" height="26" as="geometry" />
        </mxCell>
        <mxCell id="bHJu5GRSBFpT4Akue6Z2-59" value="trailer_url: varchar(150)" style="text;strokeColor=none;fillColor=none;align=left;verticalAlign=top;spacingLeft=4;spacingRight=4;overflow=hidden;rotatable=0;points=[[0,0.5],[1,0.5]];portConstraint=eastwest;" vertex="1" parent="bHJu5GRSBFpT4Akue6Z2-46">
          <mxGeometry y="342" width="190" height="26" as="geometry" />
        </mxCell>
        <mxCell id="bHJu5GRSBFpT4Akue6Z2-60" value="main_image: varchar(150)" style="text;strokeColor=none;fillColor=none;align=left;verticalAlign=top;spacingLeft=4;spacingRight=4;overflow=hidden;rotatable=0;points=[[0,0.5],[1,0.5]];portConstraint=eastwest;" vertex="1" parent="bHJu5GRSBFpT4Akue6Z2-46">
          <mxGeometry y="368" width="190" height="26" as="geometry" />
        </mxCell>
        <mxCell id="bHJu5GRSBFpT4Akue6Z2-61" value="gallery_image_1: varchar(150)" style="text;strokeColor=none;fillColor=none;align=left;verticalAlign=top;spacingLeft=4;spacingRight=4;overflow=hidden;rotatable=0;points=[[0,0.5],[1,0.5]];portConstraint=eastwest;" vertex="1" parent="bHJu5GRSBFpT4Akue6Z2-46">
          <mxGeometry y="394" width="190" height="26" as="geometry" />
        </mxCell>
        <mxCell id="bHJu5GRSBFpT4Akue6Z2-62" value="gallery_image_2: varchar(150)" style="text;strokeColor=none;fillColor=none;align=left;verticalAlign=top;spacingLeft=4;spacingRight=4;overflow=hidden;rotatable=0;points=[[0,0.5],[1,0.5]];portConstraint=eastwest;" vertex="1" parent="bHJu5GRSBFpT4Akue6Z2-46">
          <mxGeometry y="420" width="190" height="26" as="geometry" />
        </mxCell>
        <mxCell id="bHJu5GRSBFpT4Akue6Z2-63" value="gallery_image_3: varchar(150)" style="text;strokeColor=none;fillColor=none;align=left;verticalAlign=top;spacingLeft=4;spacingRight=4;overflow=hidden;rotatable=0;points=[[0,0.5],[1,0.5]];portConstraint=eastwest;" vertex="1" parent="bHJu5GRSBFpT4Akue6Z2-46">
          <mxGeometry y="446" width="190" height="26" as="geometry" />
        </mxCell>
        <mxCell id="bHJu5GRSBFpT4Akue6Z2-64" value="gallery_image_4: varchar(150)" style="text;strokeColor=none;fillColor=none;align=left;verticalAlign=top;spacingLeft=4;spacingRight=4;overflow=hidden;rotatable=0;points=[[0,0.5],[1,0.5]];portConstraint=eastwest;" vertex="1" parent="bHJu5GRSBFpT4Akue6Z2-46">
          <mxGeometry y="472" width="190" height="26" as="geometry" />
        </mxCell>
        <mxCell id="bHJu5GRSBFpT4Akue6Z2-65" value="gallery_image_5: varchar(150)" style="text;strokeColor=none;fillColor=none;align=left;verticalAlign=top;spacingLeft=4;spacingRight=4;overflow=hidden;rotatable=0;points=[[0,0.5],[1,0.5]];portConstraint=eastwest;" vertex="1" parent="bHJu5GRSBFpT4Akue6Z2-46">
          <mxGeometry y="498" width="190" height="26" as="geometry" />
        </mxCell>
        <mxCell id="bHJu5GRSBFpT4Akue6Z2-66" value="seo_id: bigint" style="text;strokeColor=none;fillColor=none;align=left;verticalAlign=top;spacingLeft=4;spacingRight=4;overflow=hidden;rotatable=0;points=[[0,0.5],[1,0.5]];portConstraint=eastwest;" vertex="1" parent="bHJu5GRSBFpT4Akue6Z2-46">
          <mxGeometry y="524" width="190" height="26" as="geometry" />
        </mxCell>
        <mxCell id="bHJu5GRSBFpT4Akue6Z2-67" value="seo" style="swimlane;fontStyle=0;childLayout=stackLayout;horizontal=1;startSize=26;fillColor=none;horizontalStack=0;resizeParent=1;resizeParentMax=0;resizeLast=0;collapsible=1;marginBottom=0;" vertex="1" parent="1">
          <mxGeometry x="-70" y="370" width="160" height="208" as="geometry" />
        </mxCell>
        <mxCell id="bHJu5GRSBFpT4Akue6Z2-68" value="id: bigint" style="text;strokeColor=none;fillColor=none;align=left;verticalAlign=top;spacingLeft=4;spacingRight=4;overflow=hidden;rotatable=0;points=[[0,0.5],[1,0.5]];portConstraint=eastwest;" vertex="1" parent="bHJu5GRSBFpT4Akue6Z2-67">
          <mxGeometry y="26" width="160" height="26" as="geometry" />
        </mxCell>
        <mxCell id="bHJu5GRSBFpT4Akue6Z2-69" value="created_at: date" style="text;strokeColor=none;fillColor=none;align=left;verticalAlign=top;spacingLeft=4;spacingRight=4;overflow=hidden;rotatable=0;points=[[0,0.5],[1,0.5]];portConstraint=eastwest;" vertex="1" parent="bHJu5GRSBFpT4Akue6Z2-67">
          <mxGeometry y="52" width="160" height="26" as="geometry" />
        </mxCell>
        <mxCell id="bHJu5GRSBFpT4Akue6Z2-70" value="update_at: date" style="text;strokeColor=none;fillColor=none;align=left;verticalAlign=top;spacingLeft=4;spacingRight=4;overflow=hidden;rotatable=0;points=[[0,0.5],[1,0.5]];portConstraint=eastwest;" vertex="1" parent="bHJu5GRSBFpT4Akue6Z2-67">
          <mxGeometry y="78" width="160" height="26" as="geometry" />
        </mxCell>
        <mxCell id="bHJu5GRSBFpT4Akue6Z2-71" value="url: varchar(150)" style="text;strokeColor=none;fillColor=none;align=left;verticalAlign=top;spacingLeft=4;spacingRight=4;overflow=hidden;rotatable=0;points=[[0,0.5],[1,0.5]];portConstraint=eastwest;" vertex="1" parent="bHJu5GRSBFpT4Akue6Z2-67">
          <mxGeometry y="104" width="160" height="26" as="geometry" />
        </mxCell>
        <mxCell id="bHJu5GRSBFpT4Akue6Z2-72" value="title: varchar(100)" style="text;strokeColor=none;fillColor=none;align=left;verticalAlign=top;spacingLeft=4;spacingRight=4;overflow=hidden;rotatable=0;points=[[0,0.5],[1,0.5]];portConstraint=eastwest;" vertex="1" parent="bHJu5GRSBFpT4Akue6Z2-67">
          <mxGeometry y="130" width="160" height="26" as="geometry" />
        </mxCell>
        <mxCell id="bHJu5GRSBFpT4Akue6Z2-73" value="keywords: varchar(300)" style="text;strokeColor=none;fillColor=none;align=left;verticalAlign=top;spacingLeft=4;spacingRight=4;overflow=hidden;rotatable=0;points=[[0,0.5],[1,0.5]];portConstraint=eastwest;" vertex="1" parent="bHJu5GRSBFpT4Akue6Z2-67">
          <mxGeometry y="156" width="160" height="26" as="geometry" />
        </mxCell>
        <mxCell id="bHJu5GRSBFpT4Akue6Z2-74" value="description: varchar(1000)" style="text;strokeColor=none;fillColor=none;align=left;verticalAlign=top;spacingLeft=4;spacingRight=4;overflow=hidden;rotatable=0;points=[[0,0.5],[1,0.5]];portConstraint=eastwest;" vertex="1" parent="bHJu5GRSBFpT4Akue6Z2-67">
          <mxGeometry y="182" width="160" height="26" as="geometry" />
        </mxCell>
        <mxCell id="bHJu5GRSBFpT4Akue6Z2-75" value="" style="edgeStyle=entityRelationEdgeStyle;fontSize=12;html=1;endArrow=ERmandOne;startArrow=ERmandOne;rounded=0;exitX=1;exitY=0.5;exitDx=0;exitDy=0;entryX=0;entryY=0.5;entryDx=0;entryDy=0;" edge="1" parent="1" source="bHJu5GRSBFpT4Akue6Z2-68" target="bHJu5GRSBFpT4Akue6Z2-66">
          <mxGeometry width="100" height="100" relative="1" as="geometry">
            <mxPoint x="90" y="179" as="sourcePoint" />
            <mxPoint x="334" y="241" as="targetPoint" />
          </mxGeometry>
        </mxCell>
        <mxCell id="bHJu5GRSBFpT4Akue6Z2-76" value="cinemas" style="swimlane;fontStyle=0;childLayout=stackLayout;horizontal=1;startSize=26;fillColor=none;horizontalStack=0;resizeParent=1;resizeParentMax=0;resizeLast=0;collapsible=1;marginBottom=0;" vertex="1" parent="1">
          <mxGeometry x="400" y="210" width="190" height="390" as="geometry" />
        </mxCell>
        <mxCell id="bHJu5GRSBFpT4Akue6Z2-77" value="id: bigint" style="text;strokeColor=none;fillColor=none;align=left;verticalAlign=top;spacingLeft=4;spacingRight=4;overflow=hidden;rotatable=0;points=[[0,0.5],[1,0.5]];portConstraint=eastwest;" vertex="1" parent="bHJu5GRSBFpT4Akue6Z2-76">
          <mxGeometry y="26" width="190" height="26" as="geometry" />
        </mxCell>
        <mxCell id="bHJu5GRSBFpT4Akue6Z2-78" value="created_at: date" style="text;strokeColor=none;fillColor=none;align=left;verticalAlign=top;spacingLeft=4;spacingRight=4;overflow=hidden;rotatable=0;points=[[0,0.5],[1,0.5]];portConstraint=eastwest;" vertex="1" parent="bHJu5GRSBFpT4Akue6Z2-76">
          <mxGeometry y="52" width="190" height="26" as="geometry" />
        </mxCell>
        <mxCell id="bHJu5GRSBFpT4Akue6Z2-79" value="update_at: date" style="text;strokeColor=none;fillColor=none;align=left;verticalAlign=top;spacingLeft=4;spacingRight=4;overflow=hidden;rotatable=0;points=[[0,0.5],[1,0.5]];portConstraint=eastwest;" vertex="1" parent="bHJu5GRSBFpT4Akue6Z2-76">
          <mxGeometry y="78" width="190" height="26" as="geometry" />
        </mxCell>
        <mxCell id="bHJu5GRSBFpT4Akue6Z2-80" value="name: varchar(100)" style="text;strokeColor=none;fillColor=none;align=left;verticalAlign=top;spacingLeft=4;spacingRight=4;overflow=hidden;rotatable=0;points=[[0,0.5],[1,0.5]];portConstraint=eastwest;" vertex="1" parent="bHJu5GRSBFpT4Akue6Z2-76">
          <mxGeometry y="104" width="190" height="26" as="geometry" />
        </mxCell>
        <mxCell id="bHJu5GRSBFpT4Akue6Z2-81" value="description: varchar(1000)" style="text;strokeColor=none;fillColor=none;align=left;verticalAlign=top;spacingLeft=4;spacingRight=4;overflow=hidden;rotatable=0;points=[[0,0.5],[1,0.5]];portConstraint=eastwest;" vertex="1" parent="bHJu5GRSBFpT4Akue6Z2-76">
          <mxGeometry y="130" width="190" height="26" as="geometry" />
        </mxCell>
        <mxCell id="bHJu5GRSBFpT4Akue6Z2-82" value="conditions: varchar(1000)" style="text;strokeColor=none;fillColor=none;align=left;verticalAlign=top;spacingLeft=4;spacingRight=4;overflow=hidden;rotatable=0;points=[[0,0.5],[1,0.5]];portConstraint=eastwest;" vertex="1" parent="bHJu5GRSBFpT4Akue6Z2-76">
          <mxGeometry y="156" width="190" height="26" as="geometry" />
        </mxCell>
        <mxCell id="bHJu5GRSBFpT4Akue6Z2-83" value="logo: varchar(150)" style="text;strokeColor=none;fillColor=none;align=left;verticalAlign=top;spacingLeft=4;spacingRight=4;overflow=hidden;rotatable=0;points=[[0,0.5],[1,0.5]];portConstraint=eastwest;" vertex="1" parent="bHJu5GRSBFpT4Akue6Z2-76">
          <mxGeometry y="182" width="190" height="26" as="geometry" />
        </mxCell>
        <mxCell id="bHJu5GRSBFpT4Akue6Z2-84" value="top_baner: varchar(150)" style="text;strokeColor=none;fillColor=none;align=left;verticalAlign=top;spacingLeft=4;spacingRight=4;overflow=hidden;rotatable=0;points=[[0,0.5],[1,0.5]];portConstraint=eastwest;" vertex="1" parent="bHJu5GRSBFpT4Akue6Z2-76">
          <mxGeometry y="208" width="190" height="26" as="geometry" />
        </mxCell>
        <mxCell id="bHJu5GRSBFpT4Akue6Z2-85" value="gallery_image_1: varchar(150)" style="text;strokeColor=none;fillColor=none;align=left;verticalAlign=top;spacingLeft=4;spacingRight=4;overflow=hidden;rotatable=0;points=[[0,0.5],[1,0.5]];portConstraint=eastwest;" vertex="1" parent="bHJu5GRSBFpT4Akue6Z2-76">
          <mxGeometry y="234" width="190" height="26" as="geometry" />
        </mxCell>
        <mxCell id="bHJu5GRSBFpT4Akue6Z2-86" value="gallery_image_2: varchar(150)" style="text;strokeColor=none;fillColor=none;align=left;verticalAlign=top;spacingLeft=4;spacingRight=4;overflow=hidden;rotatable=0;points=[[0,0.5],[1,0.5]];portConstraint=eastwest;" vertex="1" parent="bHJu5GRSBFpT4Akue6Z2-76">
          <mxGeometry y="260" width="190" height="26" as="geometry" />
        </mxCell>
        <mxCell id="bHJu5GRSBFpT4Akue6Z2-87" value="gallery_image_3: varchar(150)" style="text;strokeColor=none;fillColor=none;align=left;verticalAlign=top;spacingLeft=4;spacingRight=4;overflow=hidden;rotatable=0;points=[[0,0.5],[1,0.5]];portConstraint=eastwest;" vertex="1" parent="bHJu5GRSBFpT4Akue6Z2-76">
          <mxGeometry y="286" width="190" height="26" as="geometry" />
        </mxCell>
        <mxCell id="bHJu5GRSBFpT4Akue6Z2-88" value="gallery_image_4: varchar(150)" style="text;strokeColor=none;fillColor=none;align=left;verticalAlign=top;spacingLeft=4;spacingRight=4;overflow=hidden;rotatable=0;points=[[0,0.5],[1,0.5]];portConstraint=eastwest;" vertex="1" parent="bHJu5GRSBFpT4Akue6Z2-76">
          <mxGeometry y="312" width="190" height="26" as="geometry" />
        </mxCell>
        <mxCell id="bHJu5GRSBFpT4Akue6Z2-89" value="gallery_image_5: varchar(150)" style="text;strokeColor=none;fillColor=none;align=left;verticalAlign=top;spacingLeft=4;spacingRight=4;overflow=hidden;rotatable=0;points=[[0,0.5],[1,0.5]];portConstraint=eastwest;" vertex="1" parent="bHJu5GRSBFpT4Akue6Z2-76">
          <mxGeometry y="338" width="190" height="26" as="geometry" />
        </mxCell>
        <mxCell id="bHJu5GRSBFpT4Akue6Z2-90" value="seo_id: bigint" style="text;strokeColor=none;fillColor=none;align=left;verticalAlign=top;spacingLeft=4;spacingRight=4;overflow=hidden;rotatable=0;points=[[0,0.5],[1,0.5]];portConstraint=eastwest;" vertex="1" parent="bHJu5GRSBFpT4Akue6Z2-76">
          <mxGeometry y="364" width="190" height="26" as="geometry" />
        </mxCell>
        <mxCell id="bHJu5GRSBFpT4Akue6Z2-91" value="" style="edgeStyle=entityRelationEdgeStyle;fontSize=12;html=1;endArrow=ERmandOne;startArrow=ERmandOne;rounded=0;exitX=1;exitY=0.5;exitDx=0;exitDy=0;entryX=0;entryY=0.5;entryDx=0;entryDy=0;" edge="1" parent="1" source="bHJu5GRSBFpT4Akue6Z2-68" target="bHJu5GRSBFpT4Akue6Z2-90">
          <mxGeometry width="100" height="100" relative="1" as="geometry">
            <mxPoint x="110" y="419" as="sourcePoint" />
            <mxPoint x="750" y="323" as="targetPoint" />
          </mxGeometry>
        </mxCell>
        <mxCell id="bHJu5GRSBFpT4Akue6Z2-92" value="halls" style="swimlane;fontStyle=0;childLayout=stackLayout;horizontal=1;startSize=26;fillColor=none;horizontalStack=0;resizeParent=1;resizeParentMax=0;resizeLast=0;collapsible=1;marginBottom=0;" vertex="1" parent="1">
          <mxGeometry x="150" y="585" width="190" height="390" as="geometry" />
        </mxCell>
        <mxCell id="bHJu5GRSBFpT4Akue6Z2-93" value="id: bigint" style="text;strokeColor=none;fillColor=none;align=left;verticalAlign=top;spacingLeft=4;spacingRight=4;overflow=hidden;rotatable=0;points=[[0,0.5],[1,0.5]];portConstraint=eastwest;" vertex="1" parent="bHJu5GRSBFpT4Akue6Z2-92">
          <mxGeometry y="26" width="190" height="26" as="geometry" />
        </mxCell>
        <mxCell id="bHJu5GRSBFpT4Akue6Z2-94" value="created_at: date" style="text;strokeColor=none;fillColor=none;align=left;verticalAlign=top;spacingLeft=4;spacingRight=4;overflow=hidden;rotatable=0;points=[[0,0.5],[1,0.5]];portConstraint=eastwest;" vertex="1" parent="bHJu5GRSBFpT4Akue6Z2-92">
          <mxGeometry y="52" width="190" height="26" as="geometry" />
        </mxCell>
        <mxCell id="bHJu5GRSBFpT4Akue6Z2-95" value="update_at: date" style="text;strokeColor=none;fillColor=none;align=left;verticalAlign=top;spacingLeft=4;spacingRight=4;overflow=hidden;rotatable=0;points=[[0,0.5],[1,0.5]];portConstraint=eastwest;" vertex="1" parent="bHJu5GRSBFpT4Akue6Z2-92">
          <mxGeometry y="78" width="190" height="26" as="geometry" />
        </mxCell>
        <mxCell id="bHJu5GRSBFpT4Akue6Z2-96" value="name: varchar(100)" style="text;strokeColor=none;fillColor=none;align=left;verticalAlign=top;spacingLeft=4;spacingRight=4;overflow=hidden;rotatable=0;points=[[0,0.5],[1,0.5]];portConstraint=eastwest;" vertex="1" parent="bHJu5GRSBFpT4Akue6Z2-92">
          <mxGeometry y="104" width="190" height="26" as="geometry" />
        </mxCell>
        <mxCell id="bHJu5GRSBFpT4Akue6Z2-97" value="description: varchar(1000)" style="text;strokeColor=none;fillColor=none;align=left;verticalAlign=top;spacingLeft=4;spacingRight=4;overflow=hidden;rotatable=0;points=[[0,0.5],[1,0.5]];portConstraint=eastwest;" vertex="1" parent="bHJu5GRSBFpT4Akue6Z2-92">
          <mxGeometry y="130" width="190" height="26" as="geometry" />
        </mxCell>
        <mxCell id="bHJu5GRSBFpT4Akue6Z2-98" value="schema: varchar(150)" style="text;strokeColor=none;fillColor=none;align=left;verticalAlign=top;spacingLeft=4;spacingRight=4;overflow=hidden;rotatable=0;points=[[0,0.5],[1,0.5]];portConstraint=eastwest;" vertex="1" parent="bHJu5GRSBFpT4Akue6Z2-92">
          <mxGeometry y="156" width="190" height="26" as="geometry" />
        </mxCell>
        <mxCell id="bHJu5GRSBFpT4Akue6Z2-99" value="top_baner: varchar(150)" style="text;strokeColor=none;fillColor=none;align=left;verticalAlign=top;spacingLeft=4;spacingRight=4;overflow=hidden;rotatable=0;points=[[0,0.5],[1,0.5]];portConstraint=eastwest;" vertex="1" parent="bHJu5GRSBFpT4Akue6Z2-92">
          <mxGeometry y="182" width="190" height="26" as="geometry" />
        </mxCell>
        <mxCell id="bHJu5GRSBFpT4Akue6Z2-100" value="gallery_image_1: varchar(150)" style="text;strokeColor=none;fillColor=none;align=left;verticalAlign=top;spacingLeft=4;spacingRight=4;overflow=hidden;rotatable=0;points=[[0,0.5],[1,0.5]];portConstraint=eastwest;" vertex="1" parent="bHJu5GRSBFpT4Akue6Z2-92">
          <mxGeometry y="208" width="190" height="26" as="geometry" />
        </mxCell>
        <mxCell id="bHJu5GRSBFpT4Akue6Z2-101" value="gallery_image_2: varchar(150)" style="text;strokeColor=none;fillColor=none;align=left;verticalAlign=top;spacingLeft=4;spacingRight=4;overflow=hidden;rotatable=0;points=[[0,0.5],[1,0.5]];portConstraint=eastwest;" vertex="1" parent="bHJu5GRSBFpT4Akue6Z2-92">
          <mxGeometry y="234" width="190" height="26" as="geometry" />
        </mxCell>
        <mxCell id="bHJu5GRSBFpT4Akue6Z2-102" value="gallery_image_3: varchar(150)" style="text;strokeColor=none;fillColor=none;align=left;verticalAlign=top;spacingLeft=4;spacingRight=4;overflow=hidden;rotatable=0;points=[[0,0.5],[1,0.5]];portConstraint=eastwest;" vertex="1" parent="bHJu5GRSBFpT4Akue6Z2-92">
          <mxGeometry y="260" width="190" height="26" as="geometry" />
        </mxCell>
        <mxCell id="bHJu5GRSBFpT4Akue6Z2-103" value="gallery_image_4: varchar(150)" style="text;strokeColor=none;fillColor=none;align=left;verticalAlign=top;spacingLeft=4;spacingRight=4;overflow=hidden;rotatable=0;points=[[0,0.5],[1,0.5]];portConstraint=eastwest;" vertex="1" parent="bHJu5GRSBFpT4Akue6Z2-92">
          <mxGeometry y="286" width="190" height="26" as="geometry" />
        </mxCell>
        <mxCell id="bHJu5GRSBFpT4Akue6Z2-104" value="gallery_image_5: varchar(150)" style="text;strokeColor=none;fillColor=none;align=left;verticalAlign=top;spacingLeft=4;spacingRight=4;overflow=hidden;rotatable=0;points=[[0,0.5],[1,0.5]];portConstraint=eastwest;" vertex="1" parent="bHJu5GRSBFpT4Akue6Z2-92">
          <mxGeometry y="312" width="190" height="26" as="geometry" />
        </mxCell>
        <mxCell id="bHJu5GRSBFpT4Akue6Z2-105" value="cinema_id: bigint" style="text;strokeColor=none;fillColor=none;align=left;verticalAlign=top;spacingLeft=4;spacingRight=4;overflow=hidden;rotatable=0;points=[[0,0.5],[1,0.5]];portConstraint=eastwest;" vertex="1" parent="bHJu5GRSBFpT4Akue6Z2-92">
          <mxGeometry y="338" width="190" height="26" as="geometry" />
        </mxCell>
        <mxCell id="bHJu5GRSBFpT4Akue6Z2-106" value="seo_id: bigint" style="text;strokeColor=none;fillColor=none;align=left;verticalAlign=top;spacingLeft=4;spacingRight=4;overflow=hidden;rotatable=0;points=[[0,0.5],[1,0.5]];portConstraint=eastwest;" vertex="1" parent="bHJu5GRSBFpT4Akue6Z2-92">
          <mxGeometry y="364" width="190" height="26" as="geometry" />
        </mxCell>
        <mxCell id="bHJu5GRSBFpT4Akue6Z2-107" value="" style="edgeStyle=entityRelationEdgeStyle;fontSize=12;html=1;endArrow=ERoneToMany;rounded=0;entryX=1;entryY=0.5;entryDx=0;entryDy=0;exitX=0;exitY=0.5;exitDx=0;exitDy=0;" edge="1" parent="1" source="bHJu5GRSBFpT4Akue6Z2-77" target="bHJu5GRSBFpT4Akue6Z2-105">
          <mxGeometry width="100" height="100" relative="1" as="geometry">
            <mxPoint x="360" y="689" as="sourcePoint" />
            <mxPoint x="600" y="348" as="targetPoint" />
          </mxGeometry>
        </mxCell>
        <mxCell id="bHJu5GRSBFpT4Akue6Z2-108" value="" style="edgeStyle=entityRelationEdgeStyle;fontSize=12;html=1;endArrow=ERmandOne;startArrow=ERmandOne;rounded=0;exitX=1;exitY=0.5;exitDx=0;exitDy=0;entryX=0;entryY=0.5;entryDx=0;entryDy=0;" edge="1" parent="1" source="bHJu5GRSBFpT4Akue6Z2-68" target="bHJu5GRSBFpT4Akue6Z2-106">
          <mxGeometry width="100" height="100" relative="1" as="geometry">
            <mxPoint x="110" y="419" as="sourcePoint" />
            <mxPoint x="980" y="612" as="targetPoint" />
          </mxGeometry>
        </mxCell>
        <mxCell id="bHJu5GRSBFpT4Akue6Z2-109" value="" style="edgeStyle=entityRelationEdgeStyle;fontSize=12;html=1;endArrow=ERmandOne;startArrow=ERmandOne;rounded=0;exitX=1;exitY=0.5;exitDx=0;exitDy=0;entryX=0;entryY=0.5;entryDx=0;entryDy=0;" edge="1" parent="1" source="bHJu5GRSBFpT4Akue6Z2-68" target="bHJu5GRSBFpT4Akue6Z2-182">
          <mxGeometry width="100" height="100" relative="1" as="geometry">
            <mxPoint x="110" y="419" as="sourcePoint" />
            <mxPoint x="170" y="-50" as="targetPoint" />
          </mxGeometry>
        </mxCell>
        <mxCell id="bHJu5GRSBFpT4Akue6Z2-110" value="main_pages" style="swimlane;fontStyle=0;childLayout=stackLayout;horizontal=1;startSize=26;fillColor=none;horizontalStack=0;resizeParent=1;resizeParentMax=0;resizeLast=0;collapsible=1;marginBottom=0;" vertex="1" parent="1">
          <mxGeometry x="-305" y="116" width="160" height="234" as="geometry" />
        </mxCell>
        <mxCell id="bHJu5GRSBFpT4Akue6Z2-111" value="id: bigint" style="text;strokeColor=none;fillColor=none;align=left;verticalAlign=top;spacingLeft=4;spacingRight=4;overflow=hidden;rotatable=0;points=[[0,0.5],[1,0.5]];portConstraint=eastwest;" vertex="1" parent="bHJu5GRSBFpT4Akue6Z2-110">
          <mxGeometry y="26" width="160" height="26" as="geometry" />
        </mxCell>
        <mxCell id="bHJu5GRSBFpT4Akue6Z2-112" value="created_at: date" style="text;strokeColor=none;fillColor=none;align=left;verticalAlign=top;spacingLeft=4;spacingRight=4;overflow=hidden;rotatable=0;points=[[0,0.5],[1,0.5]];portConstraint=eastwest;" vertex="1" parent="bHJu5GRSBFpT4Akue6Z2-110">
          <mxGeometry y="52" width="160" height="26" as="geometry" />
        </mxCell>
        <mxCell id="bHJu5GRSBFpT4Akue6Z2-113" value="update_at: date" style="text;strokeColor=none;fillColor=none;align=left;verticalAlign=top;spacingLeft=4;spacingRight=4;overflow=hidden;rotatable=0;points=[[0,0.5],[1,0.5]];portConstraint=eastwest;" vertex="1" parent="bHJu5GRSBFpT4Akue6Z2-110">
          <mxGeometry y="78" width="160" height="26" as="geometry" />
        </mxCell>
        <mxCell id="bHJu5GRSBFpT4Akue6Z2-114" value="phone_1: varchar(20)" style="text;strokeColor=none;fillColor=none;align=left;verticalAlign=top;spacingLeft=4;spacingRight=4;overflow=hidden;rotatable=0;points=[[0,0.5],[1,0.5]];portConstraint=eastwest;" vertex="1" parent="bHJu5GRSBFpT4Akue6Z2-110">
          <mxGeometry y="104" width="160" height="26" as="geometry" />
        </mxCell>
        <mxCell id="bHJu5GRSBFpT4Akue6Z2-115" value="phone_2: varchar(20)" style="text;strokeColor=none;fillColor=none;align=left;verticalAlign=top;spacingLeft=4;spacingRight=4;overflow=hidden;rotatable=0;points=[[0,0.5],[1,0.5]];portConstraint=eastwest;" vertex="1" parent="bHJu5GRSBFpT4Akue6Z2-110">
          <mxGeometry y="130" width="160" height="26" as="geometry" />
        </mxCell>
        <mxCell id="bHJu5GRSBFpT4Akue6Z2-116" value="is_disabled: boolean" style="text;strokeColor=none;fillColor=none;align=left;verticalAlign=top;spacingLeft=4;spacingRight=4;overflow=hidden;rotatable=0;points=[[0,0.5],[1,0.5]];portConstraint=eastwest;" vertex="1" parent="bHJu5GRSBFpT4Akue6Z2-110">
          <mxGeometry y="156" width="160" height="26" as="geometry" />
        </mxCell>
        <mxCell id="bHJu5GRSBFpT4Akue6Z2-117" value="seo_text: varchar(1000)" style="text;strokeColor=none;fillColor=none;align=left;verticalAlign=top;spacingLeft=4;spacingRight=4;overflow=hidden;rotatable=0;points=[[0,0.5],[1,0.5]];portConstraint=eastwest;" vertex="1" parent="bHJu5GRSBFpT4Akue6Z2-110">
          <mxGeometry y="182" width="160" height="26" as="geometry" />
        </mxCell>
        <mxCell id="bHJu5GRSBFpT4Akue6Z2-118" value="seo_id: bigint" style="text;strokeColor=none;fillColor=none;align=left;verticalAlign=top;spacingLeft=4;spacingRight=4;overflow=hidden;rotatable=0;points=[[0,0.5],[1,0.5]];portConstraint=eastwest;" vertex="1" parent="bHJu5GRSBFpT4Akue6Z2-110">
          <mxGeometry y="208" width="160" height="26" as="geometry" />
        </mxCell>
        <mxCell id="bHJu5GRSBFpT4Akue6Z2-119" value="" style="edgeStyle=entityRelationEdgeStyle;fontSize=12;html=1;endArrow=ERmandOne;startArrow=ERmandOne;rounded=0;exitX=0;exitY=0.5;exitDx=0;exitDy=0;entryX=1;entryY=0.5;entryDx=0;entryDy=0;" edge="1" parent="1" source="bHJu5GRSBFpT4Akue6Z2-68" target="bHJu5GRSBFpT4Akue6Z2-118">
          <mxGeometry width="100" height="100" relative="1" as="geometry">
            <mxPoint x="100" y="419" as="sourcePoint" />
            <mxPoint x="250" y="835" as="targetPoint" />
          </mxGeometry>
        </mxCell>
        <mxCell id="bHJu5GRSBFpT4Akue6Z2-120" value="common_pages" style="swimlane;fontStyle=0;childLayout=stackLayout;horizontal=1;startSize=26;fillColor=none;horizontalStack=0;resizeParent=1;resizeParentMax=0;resizeLast=0;collapsible=1;marginBottom=0;" vertex="1" parent="1">
          <mxGeometry x="-540" y="51.5" width="190" height="364" as="geometry" />
        </mxCell>
        <mxCell id="bHJu5GRSBFpT4Akue6Z2-121" value="id: bigint" style="text;strokeColor=none;fillColor=none;align=left;verticalAlign=top;spacingLeft=4;spacingRight=4;overflow=hidden;rotatable=0;points=[[0,0.5],[1,0.5]];portConstraint=eastwest;" vertex="1" parent="bHJu5GRSBFpT4Akue6Z2-120">
          <mxGeometry y="26" width="190" height="26" as="geometry" />
        </mxCell>
        <mxCell id="bHJu5GRSBFpT4Akue6Z2-122" value="created_at: date" style="text;strokeColor=none;fillColor=none;align=left;verticalAlign=top;spacingLeft=4;spacingRight=4;overflow=hidden;rotatable=0;points=[[0,0.5],[1,0.5]];portConstraint=eastwest;" vertex="1" parent="bHJu5GRSBFpT4Akue6Z2-120">
          <mxGeometry y="52" width="190" height="26" as="geometry" />
        </mxCell>
        <mxCell id="bHJu5GRSBFpT4Akue6Z2-123" value="update_at: date" style="text;strokeColor=none;fillColor=none;align=left;verticalAlign=top;spacingLeft=4;spacingRight=4;overflow=hidden;rotatable=0;points=[[0,0.5],[1,0.5]];portConstraint=eastwest;" vertex="1" parent="bHJu5GRSBFpT4Akue6Z2-120">
          <mxGeometry y="78" width="190" height="26" as="geometry" />
        </mxCell>
        <mxCell id="bHJu5GRSBFpT4Akue6Z2-124" value="name: varchar(100)" style="text;strokeColor=none;fillColor=none;align=left;verticalAlign=top;spacingLeft=4;spacingRight=4;overflow=hidden;rotatable=0;points=[[0,0.5],[1,0.5]];portConstraint=eastwest;" vertex="1" parent="bHJu5GRSBFpT4Akue6Z2-120">
          <mxGeometry y="104" width="190" height="26" as="geometry" />
        </mxCell>
        <mxCell id="bHJu5GRSBFpT4Akue6Z2-125" value="description: varchar(1000)" style="text;strokeColor=none;fillColor=none;align=left;verticalAlign=top;spacingLeft=4;spacingRight=4;overflow=hidden;rotatable=0;points=[[0,0.5],[1,0.5]];portConstraint=eastwest;" vertex="1" parent="bHJu5GRSBFpT4Akue6Z2-120">
          <mxGeometry y="130" width="190" height="26" as="geometry" />
        </mxCell>
        <mxCell id="bHJu5GRSBFpT4Akue6Z2-126" value="is_disabled: boolean" style="text;strokeColor=none;fillColor=none;align=left;verticalAlign=top;spacingLeft=4;spacingRight=4;overflow=hidden;rotatable=0;points=[[0,0.5],[1,0.5]];portConstraint=eastwest;" vertex="1" parent="bHJu5GRSBFpT4Akue6Z2-120">
          <mxGeometry y="156" width="190" height="26" as="geometry" />
        </mxCell>
        <mxCell id="bHJu5GRSBFpT4Akue6Z2-127" value="main_image: varchar(150)" style="text;strokeColor=none;fillColor=none;align=left;verticalAlign=top;spacingLeft=4;spacingRight=4;overflow=hidden;rotatable=0;points=[[0,0.5],[1,0.5]];portConstraint=eastwest;" vertex="1" parent="bHJu5GRSBFpT4Akue6Z2-120">
          <mxGeometry y="182" width="190" height="26" as="geometry" />
        </mxCell>
        <mxCell id="bHJu5GRSBFpT4Akue6Z2-128" value="gallery_image_1: varchar(150)" style="text;strokeColor=none;fillColor=none;align=left;verticalAlign=top;spacingLeft=4;spacingRight=4;overflow=hidden;rotatable=0;points=[[0,0.5],[1,0.5]];portConstraint=eastwest;" vertex="1" parent="bHJu5GRSBFpT4Akue6Z2-120">
          <mxGeometry y="208" width="190" height="26" as="geometry" />
        </mxCell>
        <mxCell id="bHJu5GRSBFpT4Akue6Z2-129" value="gallery_image_2: varchar(150)" style="text;strokeColor=none;fillColor=none;align=left;verticalAlign=top;spacingLeft=4;spacingRight=4;overflow=hidden;rotatable=0;points=[[0,0.5],[1,0.5]];portConstraint=eastwest;" vertex="1" parent="bHJu5GRSBFpT4Akue6Z2-120">
          <mxGeometry y="234" width="190" height="26" as="geometry" />
        </mxCell>
        <mxCell id="bHJu5GRSBFpT4Akue6Z2-130" value="gallery_image_3: varchar(150)" style="text;strokeColor=none;fillColor=none;align=left;verticalAlign=top;spacingLeft=4;spacingRight=4;overflow=hidden;rotatable=0;points=[[0,0.5],[1,0.5]];portConstraint=eastwest;" vertex="1" parent="bHJu5GRSBFpT4Akue6Z2-120">
          <mxGeometry y="260" width="190" height="26" as="geometry" />
        </mxCell>
        <mxCell id="bHJu5GRSBFpT4Akue6Z2-131" value="gallery_image_4: varchar(150)" style="text;strokeColor=none;fillColor=none;align=left;verticalAlign=top;spacingLeft=4;spacingRight=4;overflow=hidden;rotatable=0;points=[[0,0.5],[1,0.5]];portConstraint=eastwest;" vertex="1" parent="bHJu5GRSBFpT4Akue6Z2-120">
          <mxGeometry y="286" width="190" height="26" as="geometry" />
        </mxCell>
        <mxCell id="bHJu5GRSBFpT4Akue6Z2-132" value="gallery_image_5: varchar(150)" style="text;strokeColor=none;fillColor=none;align=left;verticalAlign=top;spacingLeft=4;spacingRight=4;overflow=hidden;rotatable=0;points=[[0,0.5],[1,0.5]];portConstraint=eastwest;" vertex="1" parent="bHJu5GRSBFpT4Akue6Z2-120">
          <mxGeometry y="312" width="190" height="26" as="geometry" />
        </mxCell>
        <mxCell id="bHJu5GRSBFpT4Akue6Z2-133" value="seo_id: bigint" style="text;strokeColor=none;fillColor=none;align=left;verticalAlign=top;spacingLeft=4;spacingRight=4;overflow=hidden;rotatable=0;points=[[0,0.5],[1,0.5]];portConstraint=eastwest;" vertex="1" parent="bHJu5GRSBFpT4Akue6Z2-120">
          <mxGeometry y="338" width="190" height="26" as="geometry" />
        </mxCell>
        <mxCell id="bHJu5GRSBFpT4Akue6Z2-134" value="" style="edgeStyle=entityRelationEdgeStyle;fontSize=12;html=1;endArrow=ERmandOne;startArrow=ERmandOne;rounded=0;exitX=0;exitY=0.5;exitDx=0;exitDy=0;entryX=1;entryY=0.5;entryDx=0;entryDy=0;" edge="1" parent="1" source="bHJu5GRSBFpT4Akue6Z2-68" target="bHJu5GRSBFpT4Akue6Z2-133">
          <mxGeometry width="100" height="100" relative="1" as="geometry">
            <mxPoint x="100" y="419" as="sourcePoint" />
            <mxPoint x="250" y="1039" as="targetPoint" />
          </mxGeometry>
        </mxCell>
        <mxCell id="bHJu5GRSBFpT4Akue6Z2-135" value="cinema_infos" style="swimlane;fontStyle=0;childLayout=stackLayout;horizontal=1;startSize=26;fillColor=none;horizontalStack=0;resizeParent=1;resizeParentMax=0;resizeLast=0;collapsible=1;marginBottom=0;" vertex="1" parent="1">
          <mxGeometry x="-525" y="474" width="160" height="287" as="geometry" />
        </mxCell>
        <mxCell id="bHJu5GRSBFpT4Akue6Z2-136" value="id: bigint" style="text;strokeColor=none;fillColor=none;align=left;verticalAlign=top;spacingLeft=4;spacingRight=4;overflow=hidden;rotatable=0;points=[[0,0.5],[1,0.5]];portConstraint=eastwest;" vertex="1" parent="bHJu5GRSBFpT4Akue6Z2-135">
          <mxGeometry y="26" width="160" height="26" as="geometry" />
        </mxCell>
        <mxCell id="bHJu5GRSBFpT4Akue6Z2-137" value="created_at: date" style="text;strokeColor=none;fillColor=none;align=left;verticalAlign=top;spacingLeft=4;spacingRight=4;overflow=hidden;rotatable=0;points=[[0,0.5],[1,0.5]];portConstraint=eastwest;" vertex="1" parent="bHJu5GRSBFpT4Akue6Z2-135">
          <mxGeometry y="52" width="160" height="26" as="geometry" />
        </mxCell>
        <mxCell id="bHJu5GRSBFpT4Akue6Z2-138" value="update_at: date" style="text;strokeColor=none;fillColor=none;align=left;verticalAlign=top;spacingLeft=4;spacingRight=4;overflow=hidden;rotatable=0;points=[[0,0.5],[1,0.5]];portConstraint=eastwest;" vertex="1" parent="bHJu5GRSBFpT4Akue6Z2-135">
          <mxGeometry y="78" width="160" height="27" as="geometry" />
        </mxCell>
        <mxCell id="bHJu5GRSBFpT4Akue6Z2-139" value="cinema_name: varchar(100)" style="text;strokeColor=none;fillColor=none;align=left;verticalAlign=top;spacingLeft=4;spacingRight=4;overflow=hidden;rotatable=0;points=[[0,0.5],[1,0.5]];portConstraint=eastwest;" vertex="1" parent="bHJu5GRSBFpT4Akue6Z2-135">
          <mxGeometry y="105" width="160" height="26" as="geometry" />
        </mxCell>
        <mxCell id="bHJu5GRSBFpT4Akue6Z2-140" value="is_disabled: boolean" style="text;strokeColor=none;fillColor=none;align=left;verticalAlign=top;spacingLeft=4;spacingRight=4;overflow=hidden;rotatable=0;points=[[0,0.5],[1,0.5]];portConstraint=eastwest;" vertex="1" parent="bHJu5GRSBFpT4Akue6Z2-135">
          <mxGeometry y="131" width="160" height="26" as="geometry" />
        </mxCell>
        <mxCell id="bHJu5GRSBFpT4Akue6Z2-141" value="address: varchar(500)" style="text;strokeColor=none;fillColor=none;align=left;verticalAlign=top;spacingLeft=4;spacingRight=4;overflow=hidden;rotatable=0;points=[[0,0.5],[1,0.5]];portConstraint=eastwest;" vertex="1" parent="bHJu5GRSBFpT4Akue6Z2-135">
          <mxGeometry y="157" width="160" height="26" as="geometry" />
        </mxCell>
        <mxCell id="bHJu5GRSBFpT4Akue6Z2-142" value="coordinates: varchar(100)" style="text;strokeColor=none;fillColor=none;align=left;verticalAlign=top;spacingLeft=4;spacingRight=4;overflow=hidden;rotatable=0;points=[[0,0.5],[1,0.5]];portConstraint=eastwest;" vertex="1" parent="bHJu5GRSBFpT4Akue6Z2-135">
          <mxGeometry y="183" width="160" height="26" as="geometry" />
        </mxCell>
        <mxCell id="bHJu5GRSBFpT4Akue6Z2-143" value="logo: varchar(150)" style="text;strokeColor=none;fillColor=none;align=left;verticalAlign=top;spacingLeft=4;spacingRight=4;overflow=hidden;rotatable=0;points=[[0,0.5],[1,0.5]];portConstraint=eastwest;" vertex="1" parent="bHJu5GRSBFpT4Akue6Z2-135">
          <mxGeometry y="209" width="160" height="26" as="geometry" />
        </mxCell>
        <mxCell id="bHJu5GRSBFpT4Akue6Z2-144" value="is_default: boolean" style="text;strokeColor=none;fillColor=none;align=left;verticalAlign=top;spacingLeft=4;spacingRight=4;overflow=hidden;rotatable=0;points=[[0,0.5],[1,0.5]];portConstraint=eastwest;" vertex="1" parent="bHJu5GRSBFpT4Akue6Z2-135">
          <mxGeometry y="235" width="160" height="26" as="geometry" />
        </mxCell>
        <mxCell id="bHJu5GRSBFpT4Akue6Z2-145" value="contacts_page_id: bigint" style="text;strokeColor=none;fillColor=none;align=left;verticalAlign=top;spacingLeft=4;spacingRight=4;overflow=hidden;rotatable=0;points=[[0,0.5],[1,0.5]];portConstraint=eastwest;" vertex="1" parent="bHJu5GRSBFpT4Akue6Z2-135">
          <mxGeometry y="261" width="160" height="26" as="geometry" />
        </mxCell>
        <mxCell id="bHJu5GRSBFpT4Akue6Z2-146" value="contacts_pages" style="swimlane;fontStyle=0;childLayout=stackLayout;horizontal=1;startSize=26;fillColor=none;horizontalStack=0;resizeParent=1;resizeParentMax=0;resizeLast=0;collapsible=1;marginBottom=0;" vertex="1" parent="1">
          <mxGeometry x="-290" y="474" width="160" height="78" as="geometry" />
        </mxCell>
        <mxCell id="bHJu5GRSBFpT4Akue6Z2-147" value="id: bigint" style="text;strokeColor=none;fillColor=none;align=left;verticalAlign=top;spacingLeft=4;spacingRight=4;overflow=hidden;rotatable=0;points=[[0,0.5],[1,0.5]];portConstraint=eastwest;" vertex="1" parent="bHJu5GRSBFpT4Akue6Z2-146">
          <mxGeometry y="26" width="160" height="26" as="geometry" />
        </mxCell>
        <mxCell id="bHJu5GRSBFpT4Akue6Z2-148" value="seo_id: bigint" style="text;strokeColor=none;fillColor=none;align=left;verticalAlign=top;spacingLeft=4;spacingRight=4;overflow=hidden;rotatable=0;points=[[0,0.5],[1,0.5]];portConstraint=eastwest;" vertex="1" parent="bHJu5GRSBFpT4Akue6Z2-146">
          <mxGeometry y="52" width="160" height="26" as="geometry" />
        </mxCell>
        <mxCell id="bHJu5GRSBFpT4Akue6Z2-149" value="" style="edgeStyle=entityRelationEdgeStyle;fontSize=12;html=1;endArrow=ERmandOne;startArrow=ERmandOne;rounded=0;entryX=1;entryY=0.5;entryDx=0;entryDy=0;exitX=0;exitY=0.5;exitDx=0;exitDy=0;" edge="1" parent="1" source="bHJu5GRSBFpT4Akue6Z2-68" target="bHJu5GRSBFpT4Akue6Z2-148">
          <mxGeometry width="100" height="100" relative="1" as="geometry">
            <mxPoint x="90" y="410" as="sourcePoint" />
            <mxPoint x="130" y="909" as="targetPoint" />
          </mxGeometry>
        </mxCell>
        <mxCell id="bHJu5GRSBFpT4Akue6Z2-150" value="promotions" style="swimlane;fontStyle=0;childLayout=stackLayout;horizontal=1;startSize=26;fillColor=none;horizontalStack=0;resizeParent=1;resizeParentMax=0;resizeLast=0;collapsible=1;marginBottom=0;" vertex="1" parent="1">
          <mxGeometry x="-320" y="-366" width="190" height="416" as="geometry" />
        </mxCell>
        <mxCell id="bHJu5GRSBFpT4Akue6Z2-151" value="id: bigint" style="text;strokeColor=none;fillColor=none;align=left;verticalAlign=top;spacingLeft=4;spacingRight=4;overflow=hidden;rotatable=0;points=[[0,0.5],[1,0.5]];portConstraint=eastwest;" vertex="1" parent="bHJu5GRSBFpT4Akue6Z2-150">
          <mxGeometry y="26" width="190" height="26" as="geometry" />
        </mxCell>
        <mxCell id="bHJu5GRSBFpT4Akue6Z2-152" value="created_at: date" style="text;strokeColor=none;fillColor=none;align=left;verticalAlign=top;spacingLeft=4;spacingRight=4;overflow=hidden;rotatable=0;points=[[0,0.5],[1,0.5]];portConstraint=eastwest;" vertex="1" parent="bHJu5GRSBFpT4Akue6Z2-150">
          <mxGeometry y="52" width="190" height="26" as="geometry" />
        </mxCell>
        <mxCell id="bHJu5GRSBFpT4Akue6Z2-153" value="update_at: date" style="text;strokeColor=none;fillColor=none;align=left;verticalAlign=top;spacingLeft=4;spacingRight=4;overflow=hidden;rotatable=0;points=[[0,0.5],[1,0.5]];portConstraint=eastwest;" vertex="1" parent="bHJu5GRSBFpT4Akue6Z2-150">
          <mxGeometry y="78" width="190" height="26" as="geometry" />
        </mxCell>
        <mxCell id="bHJu5GRSBFpT4Akue6Z2-154" value="name: varchar(100)" style="text;strokeColor=none;fillColor=none;align=left;verticalAlign=top;spacingLeft=4;spacingRight=4;overflow=hidden;rotatable=0;points=[[0,0.5],[1,0.5]];portConstraint=eastwest;" vertex="1" parent="bHJu5GRSBFpT4Akue6Z2-150">
          <mxGeometry y="104" width="190" height="26" as="geometry" />
        </mxCell>
        <mxCell id="bHJu5GRSBFpT4Akue6Z2-155" value="description: varchar(1000)" style="text;strokeColor=none;fillColor=none;align=left;verticalAlign=top;spacingLeft=4;spacingRight=4;overflow=hidden;rotatable=0;points=[[0,0.5],[1,0.5]];portConstraint=eastwest;" vertex="1" parent="bHJu5GRSBFpT4Akue6Z2-150">
          <mxGeometry y="130" width="190" height="26" as="geometry" />
        </mxCell>
        <mxCell id="bHJu5GRSBFpT4Akue6Z2-156" value="publicated_at: date" style="text;strokeColor=none;fillColor=none;align=left;verticalAlign=top;spacingLeft=4;spacingRight=4;overflow=hidden;rotatable=0;points=[[0,0.5],[1,0.5]];portConstraint=eastwest;" vertex="1" parent="bHJu5GRSBFpT4Akue6Z2-150">
          <mxGeometry y="156" width="190" height="26" as="geometry" />
        </mxCell>
        <mxCell id="bHJu5GRSBFpT4Akue6Z2-157" value="is_disabled: boolean" style="text;strokeColor=none;fillColor=none;align=left;verticalAlign=top;spacingLeft=4;spacingRight=4;overflow=hidden;rotatable=0;points=[[0,0.5],[1,0.5]];portConstraint=eastwest;" vertex="1" parent="bHJu5GRSBFpT4Akue6Z2-150">
          <mxGeometry y="182" width="190" height="26" as="geometry" />
        </mxCell>
        <mxCell id="bHJu5GRSBFpT4Akue6Z2-158" value="trailer_url: varchar(150)" style="text;strokeColor=none;fillColor=none;align=left;verticalAlign=top;spacingLeft=4;spacingRight=4;overflow=hidden;rotatable=0;points=[[0,0.5],[1,0.5]];portConstraint=eastwest;" vertex="1" parent="bHJu5GRSBFpT4Akue6Z2-150">
          <mxGeometry y="208" width="190" height="26" as="geometry" />
        </mxCell>
        <mxCell id="bHJu5GRSBFpT4Akue6Z2-159" value="main_image: varchar(150)" style="text;strokeColor=none;fillColor=none;align=left;verticalAlign=top;spacingLeft=4;spacingRight=4;overflow=hidden;rotatable=0;points=[[0,0.5],[1,0.5]];portConstraint=eastwest;" vertex="1" parent="bHJu5GRSBFpT4Akue6Z2-150">
          <mxGeometry y="234" width="190" height="26" as="geometry" />
        </mxCell>
        <mxCell id="bHJu5GRSBFpT4Akue6Z2-160" value="gallery_image_1: varchar(150)" style="text;strokeColor=none;fillColor=none;align=left;verticalAlign=top;spacingLeft=4;spacingRight=4;overflow=hidden;rotatable=0;points=[[0,0.5],[1,0.5]];portConstraint=eastwest;" vertex="1" parent="bHJu5GRSBFpT4Akue6Z2-150">
          <mxGeometry y="260" width="190" height="26" as="geometry" />
        </mxCell>
        <mxCell id="bHJu5GRSBFpT4Akue6Z2-161" value="gallery_image_2: varchar(150)" style="text;strokeColor=none;fillColor=none;align=left;verticalAlign=top;spacingLeft=4;spacingRight=4;overflow=hidden;rotatable=0;points=[[0,0.5],[1,0.5]];portConstraint=eastwest;" vertex="1" parent="bHJu5GRSBFpT4Akue6Z2-150">
          <mxGeometry y="286" width="190" height="26" as="geometry" />
        </mxCell>
        <mxCell id="bHJu5GRSBFpT4Akue6Z2-162" value="gallery_image_3: varchar(150)" style="text;strokeColor=none;fillColor=none;align=left;verticalAlign=top;spacingLeft=4;spacingRight=4;overflow=hidden;rotatable=0;points=[[0,0.5],[1,0.5]];portConstraint=eastwest;" vertex="1" parent="bHJu5GRSBFpT4Akue6Z2-150">
          <mxGeometry y="312" width="190" height="26" as="geometry" />
        </mxCell>
        <mxCell id="bHJu5GRSBFpT4Akue6Z2-163" value="gallery_image_4: varchar(150)" style="text;strokeColor=none;fillColor=none;align=left;verticalAlign=top;spacingLeft=4;spacingRight=4;overflow=hidden;rotatable=0;points=[[0,0.5],[1,0.5]];portConstraint=eastwest;" vertex="1" parent="bHJu5GRSBFpT4Akue6Z2-150">
          <mxGeometry y="338" width="190" height="26" as="geometry" />
        </mxCell>
        <mxCell id="bHJu5GRSBFpT4Akue6Z2-164" value="gallery_image_5: varchar(150)" style="text;strokeColor=none;fillColor=none;align=left;verticalAlign=top;spacingLeft=4;spacingRight=4;overflow=hidden;rotatable=0;points=[[0,0.5],[1,0.5]];portConstraint=eastwest;" vertex="1" parent="bHJu5GRSBFpT4Akue6Z2-150">
          <mxGeometry y="364" width="190" height="26" as="geometry" />
        </mxCell>
        <mxCell id="bHJu5GRSBFpT4Akue6Z2-165" value="seo_id: bigint" style="text;strokeColor=none;fillColor=none;align=left;verticalAlign=top;spacingLeft=4;spacingRight=4;overflow=hidden;rotatable=0;points=[[0,0.5],[1,0.5]];portConstraint=eastwest;" vertex="1" parent="bHJu5GRSBFpT4Akue6Z2-150">
          <mxGeometry y="390" width="190" height="26" as="geometry" />
        </mxCell>
        <mxCell id="bHJu5GRSBFpT4Akue6Z2-166" value="" style="edgeStyle=entityRelationEdgeStyle;fontSize=12;html=1;endArrow=ERmandOne;startArrow=ERmandOne;rounded=0;exitX=0;exitY=0.5;exitDx=0;exitDy=0;entryX=1;entryY=0.5;entryDx=0;entryDy=0;" edge="1" parent="1" source="bHJu5GRSBFpT4Akue6Z2-68" target="bHJu5GRSBFpT4Akue6Z2-165">
          <mxGeometry width="100" height="100" relative="1" as="geometry">
            <mxPoint x="-60" y="419" as="sourcePoint" />
            <mxPoint x="-270" y="277" as="targetPoint" />
          </mxGeometry>
        </mxCell>
        <mxCell id="bHJu5GRSBFpT4Akue6Z2-167" value="news" style="swimlane;fontStyle=0;childLayout=stackLayout;horizontal=1;startSize=26;fillColor=none;horizontalStack=0;resizeParent=1;resizeParentMax=0;resizeLast=0;collapsible=1;marginBottom=0;" vertex="1" parent="1">
          <mxGeometry x="150" y="-380" width="190" height="416" as="geometry" />
        </mxCell>
        <mxCell id="bHJu5GRSBFpT4Akue6Z2-168" value="id: bigint" style="text;strokeColor=none;fillColor=none;align=left;verticalAlign=top;spacingLeft=4;spacingRight=4;overflow=hidden;rotatable=0;points=[[0,0.5],[1,0.5]];portConstraint=eastwest;" vertex="1" parent="bHJu5GRSBFpT4Akue6Z2-167">
          <mxGeometry y="26" width="190" height="26" as="geometry" />
        </mxCell>
        <mxCell id="bHJu5GRSBFpT4Akue6Z2-169" value="created_at: date" style="text;strokeColor=none;fillColor=none;align=left;verticalAlign=top;spacingLeft=4;spacingRight=4;overflow=hidden;rotatable=0;points=[[0,0.5],[1,0.5]];portConstraint=eastwest;" vertex="1" parent="bHJu5GRSBFpT4Akue6Z2-167">
          <mxGeometry y="52" width="190" height="26" as="geometry" />
        </mxCell>
        <mxCell id="bHJu5GRSBFpT4Akue6Z2-170" value="update_at: date" style="text;strokeColor=none;fillColor=none;align=left;verticalAlign=top;spacingLeft=4;spacingRight=4;overflow=hidden;rotatable=0;points=[[0,0.5],[1,0.5]];portConstraint=eastwest;" vertex="1" parent="bHJu5GRSBFpT4Akue6Z2-167">
          <mxGeometry y="78" width="190" height="26" as="geometry" />
        </mxCell>
        <mxCell id="bHJu5GRSBFpT4Akue6Z2-171" value="name: varchar(100)" style="text;strokeColor=none;fillColor=none;align=left;verticalAlign=top;spacingLeft=4;spacingRight=4;overflow=hidden;rotatable=0;points=[[0,0.5],[1,0.5]];portConstraint=eastwest;" vertex="1" parent="bHJu5GRSBFpT4Akue6Z2-167">
          <mxGeometry y="104" width="190" height="26" as="geometry" />
        </mxCell>
        <mxCell id="bHJu5GRSBFpT4Akue6Z2-172" value="description: varchar(1000)" style="text;strokeColor=none;fillColor=none;align=left;verticalAlign=top;spacingLeft=4;spacingRight=4;overflow=hidden;rotatable=0;points=[[0,0.5],[1,0.5]];portConstraint=eastwest;" vertex="1" parent="bHJu5GRSBFpT4Akue6Z2-167">
          <mxGeometry y="130" width="190" height="26" as="geometry" />
        </mxCell>
        <mxCell id="bHJu5GRSBFpT4Akue6Z2-173" value="publicated_at: date" style="text;strokeColor=none;fillColor=none;align=left;verticalAlign=top;spacingLeft=4;spacingRight=4;overflow=hidden;rotatable=0;points=[[0,0.5],[1,0.5]];portConstraint=eastwest;" vertex="1" parent="bHJu5GRSBFpT4Akue6Z2-167">
          <mxGeometry y="156" width="190" height="26" as="geometry" />
        </mxCell>
        <mxCell id="bHJu5GRSBFpT4Akue6Z2-174" value="is_disabled: boolean" style="text;strokeColor=none;fillColor=none;align=left;verticalAlign=top;spacingLeft=4;spacingRight=4;overflow=hidden;rotatable=0;points=[[0,0.5],[1,0.5]];portConstraint=eastwest;" vertex="1" parent="bHJu5GRSBFpT4Akue6Z2-167">
          <mxGeometry y="182" width="190" height="26" as="geometry" />
        </mxCell>
        <mxCell id="bHJu5GRSBFpT4Akue6Z2-175" value="trailer_url: varchar(150)" style="text;strokeColor=none;fillColor=none;align=left;verticalAlign=top;spacingLeft=4;spacingRight=4;overflow=hidden;rotatable=0;points=[[0,0.5],[1,0.5]];portConstraint=eastwest;" vertex="1" parent="bHJu5GRSBFpT4Akue6Z2-167">
          <mxGeometry y="208" width="190" height="26" as="geometry" />
        </mxCell>
        <mxCell id="bHJu5GRSBFpT4Akue6Z2-176" value="main_image: varchar(150)" style="text;strokeColor=none;fillColor=none;align=left;verticalAlign=top;spacingLeft=4;spacingRight=4;overflow=hidden;rotatable=0;points=[[0,0.5],[1,0.5]];portConstraint=eastwest;" vertex="1" parent="bHJu5GRSBFpT4Akue6Z2-167">
          <mxGeometry y="234" width="190" height="26" as="geometry" />
        </mxCell>
        <mxCell id="bHJu5GRSBFpT4Akue6Z2-177" value="gallery_image_1: varchar(150)" style="text;strokeColor=none;fillColor=none;align=left;verticalAlign=top;spacingLeft=4;spacingRight=4;overflow=hidden;rotatable=0;points=[[0,0.5],[1,0.5]];portConstraint=eastwest;" vertex="1" parent="bHJu5GRSBFpT4Akue6Z2-167">
          <mxGeometry y="260" width="190" height="26" as="geometry" />
        </mxCell>
        <mxCell id="bHJu5GRSBFpT4Akue6Z2-178" value="gallery_image_2: varchar(150)" style="text;strokeColor=none;fillColor=none;align=left;verticalAlign=top;spacingLeft=4;spacingRight=4;overflow=hidden;rotatable=0;points=[[0,0.5],[1,0.5]];portConstraint=eastwest;" vertex="1" parent="bHJu5GRSBFpT4Akue6Z2-167">
          <mxGeometry y="286" width="190" height="26" as="geometry" />
        </mxCell>
        <mxCell id="bHJu5GRSBFpT4Akue6Z2-179" value="gallery_image_3: varchar(150)" style="text;strokeColor=none;fillColor=none;align=left;verticalAlign=top;spacingLeft=4;spacingRight=4;overflow=hidden;rotatable=0;points=[[0,0.5],[1,0.5]];portConstraint=eastwest;" vertex="1" parent="bHJu5GRSBFpT4Akue6Z2-167">
          <mxGeometry y="312" width="190" height="26" as="geometry" />
        </mxCell>
        <mxCell id="bHJu5GRSBFpT4Akue6Z2-180" value="gallery_image_4: varchar(150)" style="text;strokeColor=none;fillColor=none;align=left;verticalAlign=top;spacingLeft=4;spacingRight=4;overflow=hidden;rotatable=0;points=[[0,0.5],[1,0.5]];portConstraint=eastwest;" vertex="1" parent="bHJu5GRSBFpT4Akue6Z2-167">
          <mxGeometry y="338" width="190" height="26" as="geometry" />
        </mxCell>
        <mxCell id="bHJu5GRSBFpT4Akue6Z2-181" value="gallery_image_5: varchar(150)" style="text;strokeColor=none;fillColor=none;align=left;verticalAlign=top;spacingLeft=4;spacingRight=4;overflow=hidden;rotatable=0;points=[[0,0.5],[1,0.5]];portConstraint=eastwest;" vertex="1" parent="bHJu5GRSBFpT4Akue6Z2-167">
          <mxGeometry y="364" width="190" height="26" as="geometry" />
        </mxCell>
        <mxCell id="bHJu5GRSBFpT4Akue6Z2-182" value="seo_id: bigint" style="text;strokeColor=none;fillColor=none;align=left;verticalAlign=top;spacingLeft=4;spacingRight=4;overflow=hidden;rotatable=0;points=[[0,0.5],[1,0.5]];portConstraint=eastwest;" vertex="1" parent="bHJu5GRSBFpT4Akue6Z2-167">
          <mxGeometry y="390" width="190" height="26" as="geometry" />
        </mxCell>
        <mxCell id="bHJu5GRSBFpT4Akue6Z2-183" value="" style="edgeStyle=entityRelationEdgeStyle;fontSize=12;html=1;endArrow=ERoneToMany;rounded=0;entryX=1;entryY=0.5;entryDx=0;entryDy=0;exitX=0;exitY=0.5;exitDx=0;exitDy=0;" edge="1" parent="1" source="bHJu5GRSBFpT4Akue6Z2-147" target="bHJu5GRSBFpT4Akue6Z2-145">
          <mxGeometry width="100" height="100" relative="1" as="geometry">
            <mxPoint x="-290" y="539" as="sourcePoint" />
            <mxPoint x="-145" y="793" as="targetPoint" />
          </mxGeometry>
        </mxCell>
        <mxCell id="bHJu5GRSBFpT4Akue6Z2-184" value="top_banner_blocks" style="swimlane;fontStyle=0;childLayout=stackLayout;horizontal=1;startSize=26;fillColor=none;horizontalStack=0;resizeParent=1;resizeParentMax=0;resizeLast=0;collapsible=1;marginBottom=0;" vertex="1" parent="1">
          <mxGeometry x="-960" y="-1160" width="160" height="209" as="geometry" />
        </mxCell>
        <mxCell id="bHJu5GRSBFpT4Akue6Z2-185" value="id: bigint" style="text;strokeColor=none;fillColor=none;align=left;verticalAlign=top;spacingLeft=4;spacingRight=4;overflow=hidden;rotatable=0;points=[[0,0.5],[1,0.5]];portConstraint=eastwest;" vertex="1" parent="bHJu5GRSBFpT4Akue6Z2-184">
          <mxGeometry y="26" width="160" height="26" as="geometry" />
        </mxCell>
        <mxCell id="bHJu5GRSBFpT4Akue6Z2-186" value="created_at: date" style="text;strokeColor=none;fillColor=none;align=left;verticalAlign=top;spacingLeft=4;spacingRight=4;overflow=hidden;rotatable=0;points=[[0,0.5],[1,0.5]];portConstraint=eastwest;" vertex="1" parent="bHJu5GRSBFpT4Akue6Z2-184">
          <mxGeometry y="52" width="160" height="26" as="geometry" />
        </mxCell>
        <mxCell id="bHJu5GRSBFpT4Akue6Z2-187" value="update_at: date" style="text;strokeColor=none;fillColor=none;align=left;verticalAlign=top;spacingLeft=4;spacingRight=4;overflow=hidden;rotatable=0;points=[[0,0.5],[1,0.5]];portConstraint=eastwest;" vertex="1" parent="bHJu5GRSBFpT4Akue6Z2-184">
          <mxGeometry y="78" width="160" height="27" as="geometry" />
        </mxCell>
        <mxCell id="bHJu5GRSBFpT4Akue6Z2-188" value="image: varchar(150)" style="text;strokeColor=none;fillColor=none;align=left;verticalAlign=top;spacingLeft=4;spacingRight=4;overflow=hidden;rotatable=0;points=[[0,0.5],[1,0.5]];portConstraint=eastwest;" vertex="1" parent="bHJu5GRSBFpT4Akue6Z2-184">
          <mxGeometry y="105" width="160" height="26" as="geometry" />
        </mxCell>
        <mxCell id="bHJu5GRSBFpT4Akue6Z2-189" value="url: varchar(150)" style="text;strokeColor=none;fillColor=none;align=left;verticalAlign=top;spacingLeft=4;spacingRight=4;overflow=hidden;rotatable=0;points=[[0,0.5],[1,0.5]];portConstraint=eastwest;" vertex="1" parent="bHJu5GRSBFpT4Akue6Z2-184">
          <mxGeometry y="131" width="160" height="26" as="geometry" />
        </mxCell>
        <mxCell id="bHJu5GRSBFpT4Akue6Z2-190" value="text: varchar(500)" style="text;strokeColor=none;fillColor=none;align=left;verticalAlign=top;spacingLeft=4;spacingRight=4;overflow=hidden;rotatable=0;points=[[0,0.5],[1,0.5]];portConstraint=eastwest;" vertex="1" parent="bHJu5GRSBFpT4Akue6Z2-184">
          <mxGeometry y="157" width="160" height="26" as="geometry" />
        </mxCell>
        <mxCell id="bHJu5GRSBFpT4Akue6Z2-191" value="top_banner_id: bigint" style="text;strokeColor=none;fillColor=none;align=left;verticalAlign=top;spacingLeft=4;spacingRight=4;overflow=hidden;rotatable=0;points=[[0,0.5],[1,0.5]];portConstraint=eastwest;" vertex="1" parent="bHJu5GRSBFpT4Akue6Z2-184">
          <mxGeometry y="183" width="160" height="26" as="geometry" />
        </mxCell>
        <mxCell id="bHJu5GRSBFpT4Akue6Z2-192" value="" style="edgeStyle=entityRelationEdgeStyle;fontSize=12;html=1;endArrow=ERoneToMany;rounded=0;entryX=1;entryY=0.5;entryDx=0;entryDy=0;exitX=0;exitY=0.5;exitDx=0;exitDy=0;" edge="1" parent="1" source="bHJu5GRSBFpT4Akue6Z2-18" target="bHJu5GRSBFpT4Akue6Z2-191">
          <mxGeometry width="100" height="100" relative="1" as="geometry">
            <mxPoint x="-740" y="-991" as="sourcePoint" />
            <mxPoint x="-585" y="-878" as="targetPoint" />
          </mxGeometry>
        </mxCell>
        <mxCell id="bHJu5GRSBFpT4Akue6Z2-193" value="shopping_cart" style="swimlane;fontStyle=0;childLayout=stackLayout;horizontal=1;startSize=26;fillColor=none;horizontalStack=0;resizeParent=1;resizeParentMax=0;resizeLast=0;collapsible=1;marginBottom=0;" vertex="1" parent="1">
          <mxGeometry x="200" y="-680" width="200" height="104" as="geometry" />
        </mxCell>
        <mxCell id="bHJu5GRSBFpT4Akue6Z2-218" value="user_id: bigint" style="text;strokeColor=none;fillColor=none;align=left;verticalAlign=top;spacingLeft=4;spacingRight=4;overflow=hidden;rotatable=0;points=[[0,0.5],[1,0.5]];portConstraint=eastwest;" vertex="1" parent="bHJu5GRSBFpT4Akue6Z2-193">
          <mxGeometry y="26" width="200" height="26" as="geometry" />
        </mxCell>
        <mxCell id="bHJu5GRSBFpT4Akue6Z2-219" value="order_id: bigint" style="text;strokeColor=none;fillColor=none;align=left;verticalAlign=top;spacingLeft=4;spacingRight=4;overflow=hidden;rotatable=0;points=[[0,0.5],[1,0.5]];portConstraint=eastwest;" vertex="1" parent="bHJu5GRSBFpT4Akue6Z2-193">
          <mxGeometry y="52" width="200" height="26" as="geometry" />
        </mxCell>
        <mxCell id="bHJu5GRSBFpT4Akue6Z2-198" value="count: int" style="text;strokeColor=none;fillColor=none;align=left;verticalAlign=top;spacingLeft=4;spacingRight=4;overflow=hidden;rotatable=0;points=[[0,0.5],[1,0.5]];portConstraint=eastwest;" vertex="1" parent="bHJu5GRSBFpT4Akue6Z2-193">
          <mxGeometry y="78" width="200" height="26" as="geometry" />
        </mxCell>
        <mxCell id="bHJu5GRSBFpT4Akue6Z2-220" value="" style="edgeStyle=entityRelationEdgeStyle;fontSize=12;html=1;endArrow=ERoneToMany;rounded=0;entryX=0;entryY=0.5;entryDx=0;entryDy=0;exitX=1;exitY=0.5;exitDx=0;exitDy=0;" edge="1" parent="1" source="bHJu5GRSBFpT4Akue6Z2-205" target="bHJu5GRSBFpT4Akue6Z2-218">
          <mxGeometry width="100" height="100" relative="1" as="geometry">
            <mxPoint x="-120" y="-750" as="sourcePoint" />
            <mxPoint x="-230" y="-593" as="targetPoint" />
          </mxGeometry>
        </mxCell>
        <mxCell id="bHJu5GRSBFpT4Akue6Z2-222" value="" style="edgeStyle=entityRelationEdgeStyle;fontSize=12;html=1;endArrow=ERoneToMany;rounded=0;entryX=0;entryY=0.5;entryDx=0;entryDy=0;exitX=1;exitY=0.5;exitDx=0;exitDy=0;" edge="1" parent="1" source="bHJu5GRSBFpT4Akue6Z2-207" target="bHJu5GRSBFpT4Akue6Z2-31">
          <mxGeometry width="100" height="100" relative="1" as="geometry">
            <mxPoint x="550" y="-617" as="sourcePoint" />
            <mxPoint x="424" y="-704" as="targetPoint" />
          </mxGeometry>
        </mxCell>
        <mxCell id="bHJu5GRSBFpT4Akue6Z2-235" value="" style="edgeStyle=entityRelationEdgeStyle;fontSize=12;html=1;endArrow=ERoneToMany;rounded=0;entryX=1;entryY=0.5;entryDx=0;entryDy=0;exitX=0;exitY=0.5;exitDx=0;exitDy=0;" edge="1" parent="1" source="bHJu5GRSBFpT4Akue6Z2-206" target="bHJu5GRSBFpT4Akue6Z2-24">
          <mxGeometry width="100" height="100" relative="1" as="geometry">
            <mxPoint x="90" y="-683" as="sourcePoint" />
            <mxPoint x="210" y="-631" as="targetPoint" />
          </mxGeometry>
        </mxCell>
      </root>
    </mxGraphModel>
  </diagram>
</mxfile>
